<?xml version="1.0" encoding="utf-8" standalone="no"?>
<!DOCTYPE svg PUBLIC "-//W3C//DTD SVG 1.1//EN"
  "http://www.w3.org/Graphics/SVG/1.1/DTD/svg11.dtd">
<!-- Created with matplotlib (https://matplotlib.org/) -->
<svg height="504pt" version="1.1" viewBox="0 0 504 504" width="504pt" xmlns="http://www.w3.org/2000/svg" xmlns:xlink="http://www.w3.org/1999/xlink">
 <defs>
  <style type="text/css">
*{stroke-linecap:butt;stroke-linejoin:round;}
  </style>
 </defs>
 <g id="figure_1">
  <g id="patch_1">
   <path d="M 0 504 
L 504 504 
L 504 0 
L 0 0 
z
" style="fill:#ffffff;"/>
  </g>
  <g id="axes_1">
   <g id="patch_2">
    <path d="M 37.018823 471.339855 
L 488.094961 471.339855 
L 488.094961 20.263717 
L 37.018823 20.263717 
z
" style="fill:#1e0c45;"/>
   </g>
   <g id="matplotlib.axis_1">
    <g id="xtick_1">
     <g id="text_1">
      <!-- $-2.0$ -->
      <defs>
       <path d="M 65.90625 23 
C 67.59375 23 69.40625 23 69.40625 25 
C 69.40625 27 67.59375 27 65.90625 27 
L 11.796875 27 
C 10.09375 27 8.296875 27 8.296875 25 
C 8.296875 23 10.09375 23 11.796875 23 
z
" id="CMSY10-0"/>
       <path d="M 41.703125 15.453125 
L 39.90625 15.453125 
C 38.90625 8.375 38.09375 7.171875 37.703125 6.5625 
C 37.203125 5.765625 30 5.765625 28.59375 5.765625 
L 9.40625 5.765625 
C 13 9.671875 20 16.75 28.5 24.953125 
C 34.59375 30.734375 41.703125 37.53125 41.703125 47.421875 
C 41.703125 59.21875 32.296875 66 21.796875 66 
C 10.796875 66 4.09375 56.3125 4.09375 47.34375 
C 4.09375 43.4375 7 42.9375 8.203125 42.9375 
C 9.203125 42.9375 12.203125 43.546875 12.203125 47.03125 
C 12.203125 50.109375 9.59375 51 8.203125 51 
C 7.59375 51 7 50.90625 6.59375 50.703125 
C 8.5 59.21875 14.296875 63.40625 20.40625 63.40625 
C 29.09375 63.40625 34.796875 56.515625 34.796875 47.421875 
C 34.796875 38.734375 29.703125 31.25 24 24.75 
L 4.09375 2.28125 
L 4.09375 0 
L 39.296875 0 
z
" id="CMR17-50"/>
       <path d="M 18.40625 4.796875 
C 18.40625 7.6875 16 9.671875 13.59375 9.671875 
C 10.703125 9.671875 8.703125 7.28125 8.703125 4.890625 
C 8.703125 2 11.09375 0 13.5 0 
C 16.40625 0 18.40625 2.390625 18.40625 4.796875 
z
" id="CMMI12-58"/>
       <path d="M 42 31.640625 
C 42 37.75 41.90625 48.125 37.703125 56.109375 
C 34 63.109375 28.09375 65.59375 22.90625 65.59375 
C 18.09375 65.59375 12 63.40625 8.203125 56.203125 
C 4.203125 48.71875 3.796875 39.4375 3.796875 31.640625 
C 3.796875 25.953125 3.90625 17.28125 7 9.671875 
C 11.296875 -0.609375 19 -2 22.90625 -2 
C 27.5 -2 34.5 -0.109375 38.59375 9.375 
C 41.59375 16.28125 42 24.359375 42 31.640625 
z
M 22.90625 -0.40625 
C 16.5 -0.40625 12.703125 5.078125 11.296875 12.6875 
C 10.203125 18.5625 10.203125 27.15625 10.203125 32.75 
C 10.203125 40.4375 10.203125 46.828125 11.5 52.921875 
C 13.40625 61.390625 19 64 22.90625 64 
C 27 64 32.296875 61.296875 34.203125 53.125 
C 35.5 47.4375 35.59375 40.734375 35.59375 32.75 
C 35.59375 26.25 35.59375 18.265625 34.40625 12.375 
C 32.296875 1.484375 26.40625 -0.40625 22.90625 -0.40625 
z
" id="CMR17-48"/>
      </defs>
      <g style="fill:#262626;" transform="translate(26.779411 485.258354)scale(0.1 -0.1)">
       <use transform="scale(0.996264)" xlink:href="#CMSY10-0"/>
       <use transform="translate(77.487468 0)scale(0.996264)" xlink:href="#CMR17-50"/>
       <use transform="translate(123.177945 0)scale(0.996264)" xlink:href="#CMMI12-58"/>
       <use transform="translate(150.275122 0)scale(0.996264)" xlink:href="#CMR17-48"/>
      </g>
     </g>
    </g>
    <g id="xtick_2">
     <g id="text_2">
      <!-- $-1.5$ -->
      <defs>
       <path d="M 26.59375 63.40625 
C 26.59375 65.5 26.5 65.5 25.09375 65.5 
C 21.203125 61.1875 15.296875 59.796875 9.703125 59.796875 
C 9.40625 59.796875 8.90625 59.796875 8.796875 59.5 
C 8.703125 59.296875 8.703125 59.09375 8.703125 57 
C 11.796875 57 17 57.59375 21 59.984375 
L 21 7.203125 
C 21 3.6875 20.796875 2.5 12.203125 2.5 
L 9.203125 2.5 
L 9.203125 0 
C 14 0 19 0 23.796875 0 
C 28.59375 0 33.59375 0 38.40625 0 
L 38.40625 2.5 
L 35.40625 2.5 
C 26.796875 2.5 26.59375 3.59375 26.59375 7.15625 
z
" id="CMR17-49"/>
       <path d="M 11.40625 57.6875 
C 12.40625 57.28125 16.5 56 20.703125 56 
C 30 56 35.09375 61.109375 38 64.0625 
C 38 64.953125 38 65.5 37.40625 65.5 
C 37.296875 65.5 37.09375 65.5 36.296875 65.046875 
C 32.796875 63.40625 28.703125 62.078125 23.703125 62.078125 
C 20.703125 62.078125 16.203125 62.484375 11.296875 64.671875 
C 10.203125 65.171875 10 65.171875 9.90625 65.171875 
C 9.40625 65.171875 9.296875 65.0625 9.296875 63.078125 
L 9.296875 34.421875 
C 9.296875 32.640625 9.296875 32.140625 10.296875 32.140625 
C 10.796875 32.140625 11 32.34375 11.5 33.03125 
C 14.703125 37.515625 19.09375 39.40625 24.09375 39.40625 
C 27.59375 39.40625 35.09375 37.21875 35.09375 20.140625 
C 35.09375 16.953125 35.09375 11.171875 32.09375 6.578125 
C 29.59375 2.484375 25.703125 0.390625 21.40625 0.390625 
C 14.796875 0.390625 8.09375 5 6.296875 12.71875 
C 6.703125 12.609375 7.5 12.421875 7.90625 12.421875 
C 9.203125 12.421875 11.703125 13.125 11.703125 16.21875 
C 11.703125 18.90625 9.796875 20 7.90625 20 
C 5.59375 20 4.09375 18.59375 4.09375 15.796875 
C 4.09375 7.09375 11 -2 21.59375 -2 
C 31.90625 -2 41.703125 6.875 41.703125 19.75 
C 41.703125 31.71875 33.90625 41 24.203125 41 
C 19.09375 41 14.796875 39.109375 11.40625 35.53125 
z
" id="CMR17-53"/>
      </defs>
      <g style="fill:#262626;" transform="translate(83.163929 485.258354)scale(0.1 -0.1)">
       <use transform="scale(0.996264)" xlink:href="#CMSY10-0"/>
       <use transform="translate(77.487468 0)scale(0.996264)" xlink:href="#CMR17-49"/>
       <use transform="translate(123.177945 0)scale(0.996264)" xlink:href="#CMMI12-58"/>
       <use transform="translate(150.275122 0)scale(0.996264)" xlink:href="#CMR17-53"/>
      </g>
     </g>
    </g>
    <g id="xtick_3">
     <g id="text_3">
      <!-- $-1.0$ -->
      <g style="fill:#262626;" transform="translate(139.548446 485.258354)scale(0.1 -0.1)">
       <use transform="scale(0.996264)" xlink:href="#CMSY10-0"/>
       <use transform="translate(77.487468 0)scale(0.996264)" xlink:href="#CMR17-49"/>
       <use transform="translate(123.177945 0)scale(0.996264)" xlink:href="#CMMI12-58"/>
       <use transform="translate(150.275122 0)scale(0.996264)" xlink:href="#CMR17-48"/>
      </g>
     </g>
    </g>
    <g id="xtick_4">
     <g id="text_4">
      <!-- $-0.5$ -->
      <g style="fill:#262626;" transform="translate(195.932963 485.258354)scale(0.1 -0.1)">
       <use transform="scale(0.996264)" xlink:href="#CMSY10-0"/>
       <use transform="translate(77.487468 0)scale(0.996264)" xlink:href="#CMR17-48"/>
       <use transform="translate(123.177945 0)scale(0.996264)" xlink:href="#CMMI12-58"/>
       <use transform="translate(150.275122 0)scale(0.996264)" xlink:href="#CMR17-53"/>
      </g>
     </g>
    </g>
    <g id="xtick_5">
     <g id="text_5">
      <!-- $0.0$ -->
      <g style="fill:#262626;" transform="translate(256.191852 485.258354)scale(0.1 -0.1)">
       <use transform="scale(0.996264)" xlink:href="#CMR17-48"/>
       <use transform="translate(45.690477 0)scale(0.996264)" xlink:href="#CMMI12-58"/>
       <use transform="translate(72.787654 0)scale(0.996264)" xlink:href="#CMR17-48"/>
      </g>
     </g>
    </g>
    <g id="xtick_6">
     <g id="text_6">
      <!-- $0.5$ -->
      <g style="fill:#262626;" transform="translate(312.576369 485.258354)scale(0.1 -0.1)">
       <use transform="scale(0.996264)" xlink:href="#CMR17-48"/>
       <use transform="translate(45.690477 0)scale(0.996264)" xlink:href="#CMMI12-58"/>
       <use transform="translate(72.787654 0)scale(0.996264)" xlink:href="#CMR17-53"/>
      </g>
     </g>
    </g>
    <g id="xtick_7">
     <g id="text_7">
      <!-- $1.0$ -->
      <g style="fill:#262626;" transform="translate(368.960887 485.258354)scale(0.1 -0.1)">
       <use transform="scale(0.996264)" xlink:href="#CMR17-49"/>
       <use transform="translate(45.690477 0)scale(0.996264)" xlink:href="#CMMI12-58"/>
       <use transform="translate(72.787654 0)scale(0.996264)" xlink:href="#CMR17-48"/>
      </g>
     </g>
    </g>
    <g id="xtick_8">
     <g id="text_8">
      <!-- $1.5$ -->
      <g style="fill:#262626;" transform="translate(425.345404 485.258354)scale(0.1 -0.1)">
       <use transform="scale(0.996264)" xlink:href="#CMR17-49"/>
       <use transform="translate(45.690477 0)scale(0.996264)" xlink:href="#CMMI12-58"/>
       <use transform="translate(72.787654 0)scale(0.996264)" xlink:href="#CMR17-53"/>
      </g>
     </g>
    </g>
    <g id="xtick_9">
     <g id="text_9">
      <!-- $2.0$ -->
      <g style="fill:#262626;" transform="translate(481.729921 485.258354)scale(0.1 -0.1)">
       <use transform="scale(0.996264)" xlink:href="#CMR17-50"/>
       <use transform="translate(45.690477 0)scale(0.996264)" xlink:href="#CMMI12-58"/>
       <use transform="translate(72.787654 0)scale(0.996264)" xlink:href="#CMR17-48"/>
      </g>
     </g>
    </g>
   </g>
   <g id="matplotlib.axis_2">
    <g id="ytick_1">
     <g id="text_10">
      <!-- $-2.0$ -->
      <g style="fill:#262626;" transform="translate(9.54 474.799104)scale(0.1 -0.1)">
       <use transform="scale(0.996264)" xlink:href="#CMSY10-0"/>
       <use transform="translate(77.487468 0)scale(0.996264)" xlink:href="#CMR17-50"/>
       <use transform="translate(123.177945 0)scale(0.996264)" xlink:href="#CMMI12-58"/>
       <use transform="translate(150.275122 0)scale(0.996264)" xlink:href="#CMR17-48"/>
      </g>
     </g>
    </g>
    <g id="ytick_2">
     <g id="text_11">
      <!-- $-1.5$ -->
      <g style="fill:#262626;" transform="translate(9.54 418.414587)scale(0.1 -0.1)">
       <use transform="scale(0.996264)" xlink:href="#CMSY10-0"/>
       <use transform="translate(77.487468 0)scale(0.996264)" xlink:href="#CMR17-49"/>
       <use transform="translate(123.177945 0)scale(0.996264)" xlink:href="#CMMI12-58"/>
       <use transform="translate(150.275122 0)scale(0.996264)" xlink:href="#CMR17-53"/>
      </g>
     </g>
    </g>
    <g id="ytick_3">
     <g id="text_12">
      <!-- $-1.0$ -->
      <g style="fill:#262626;" transform="translate(9.54 362.03007)scale(0.1 -0.1)">
       <use transform="scale(0.996264)" xlink:href="#CMSY10-0"/>
       <use transform="translate(77.487468 0)scale(0.996264)" xlink:href="#CMR17-49"/>
       <use transform="translate(123.177945 0)scale(0.996264)" xlink:href="#CMMI12-58"/>
       <use transform="translate(150.275122 0)scale(0.996264)" xlink:href="#CMR17-48"/>
      </g>
     </g>
    </g>
    <g id="ytick_4">
     <g id="text_13">
      <!-- $-0.5$ -->
      <g style="fill:#262626;" transform="translate(9.54 305.645553)scale(0.1 -0.1)">
       <use transform="scale(0.996264)" xlink:href="#CMSY10-0"/>
       <use transform="translate(77.487468 0)scale(0.996264)" xlink:href="#CMR17-48"/>
       <use transform="translate(123.177945 0)scale(0.996264)" xlink:href="#CMMI12-58"/>
       <use transform="translate(150.275122 0)scale(0.996264)" xlink:href="#CMR17-53"/>
      </g>
     </g>
    </g>
    <g id="ytick_5">
     <g id="text_14">
      <!-- $0.0$ -->
      <g style="fill:#262626;" transform="translate(17.288744 249.261035)scale(0.1 -0.1)">
       <use transform="scale(0.996264)" xlink:href="#CMR17-48"/>
       <use transform="translate(45.690477 0)scale(0.996264)" xlink:href="#CMMI12-58"/>
       <use transform="translate(72.787654 0)scale(0.996264)" xlink:href="#CMR17-48"/>
      </g>
     </g>
    </g>
    <g id="ytick_6">
     <g id="text_15">
      <!-- $0.5$ -->
      <g style="fill:#262626;" transform="translate(17.288744 192.876518)scale(0.1 -0.1)">
       <use transform="scale(0.996264)" xlink:href="#CMR17-48"/>
       <use transform="translate(45.690477 0)scale(0.996264)" xlink:href="#CMMI12-58"/>
       <use transform="translate(72.787654 0)scale(0.996264)" xlink:href="#CMR17-53"/>
      </g>
     </g>
    </g>
    <g id="ytick_7">
     <g id="text_16">
      <!-- $1.0$ -->
      <g style="fill:#262626;" transform="translate(17.288744 136.492001)scale(0.1 -0.1)">
       <use transform="scale(0.996264)" xlink:href="#CMR17-49"/>
       <use transform="translate(45.690477 0)scale(0.996264)" xlink:href="#CMMI12-58"/>
       <use transform="translate(72.787654 0)scale(0.996264)" xlink:href="#CMR17-48"/>
      </g>
     </g>
    </g>
    <g id="ytick_8">
     <g id="text_17">
      <!-- $1.5$ -->
      <g style="fill:#262626;" transform="translate(17.288744 80.107484)scale(0.1 -0.1)">
       <use transform="scale(0.996264)" xlink:href="#CMR17-49"/>
       <use transform="translate(45.690477 0)scale(0.996264)" xlink:href="#CMMI12-58"/>
       <use transform="translate(72.787654 0)scale(0.996264)" xlink:href="#CMR17-53"/>
      </g>
     </g>
    </g>
    <g id="ytick_9">
     <g id="text_18">
      <!-- $2.0$ -->
      <g style="fill:#262626;" transform="translate(17.288744 23.722967)scale(0.1 -0.1)">
       <use transform="scale(0.996264)" xlink:href="#CMR17-50"/>
       <use transform="translate(45.690477 0)scale(0.996264)" xlink:href="#CMMI12-58"/>
       <use transform="translate(72.787654 0)scale(0.996264)" xlink:href="#CMR17-48"/>
      </g>
     </g>
    </g>
   </g>
   <g id="patch_3">
    <path clip-path="url(#pd639344cc2)" d="M 262.556892 358.570821 
C 292.463589 358.570821 321.149412 346.688764 342.296641 325.541535 
C 363.443869 304.394307 375.325926 275.708484 375.325926 245.801786 
C 375.325926 215.895089 363.443869 187.209266 342.296641 166.062037 
C 321.149412 144.914809 292.463589 133.032752 262.556892 133.032752 
C 232.650194 133.032752 203.964371 144.914809 182.817143 166.062037 
C 161.669914 187.209266 149.787857 215.895089 149.787857 245.801786 
C 149.787857 275.708484 161.669914 304.394307 182.817143 325.541535 
C 203.964371 346.688764 232.650194 358.570821 262.556892 358.570821 
z
" style="fill:#1e0c45;stroke:#1e0c45;stroke-linejoin:miter;"/>
   </g>
   <g id="patch_4">
    <path clip-path="url(#pd639344cc2)" d="M 262.556892 358.570821 
C 292.463589 358.570821 321.149412 346.688764 342.296641 325.541535 
C 363.443869 304.394307 375.325926 275.708484 375.325926 245.801786 
C 375.325926 215.895089 363.443869 187.209266 342.296641 166.062037 
C 321.149412 144.914809 292.463589 133.032752 262.556892 133.032752 
C 232.650194 133.032752 203.964371 144.914809 182.817143 166.062037 
C 161.669914 187.209266 149.787857 215.895089 149.787857 245.801786 
C 149.787857 275.708484 161.669914 304.394307 182.817143 325.541535 
C 203.964371 346.688764 232.650194 358.570821 262.556892 358.570821 
z
" style="fill:none;stroke:#808080;stroke-linejoin:miter;stroke-width:2;"/>
   </g>
   <g id="line2d_1">
    <path clip-path="url(#pd639344cc2)" d="M 37.018823 245.801786 
L 488.094961 245.801786 
" style="fill:none;stroke:#808080;stroke-dasharray:1.11,0.48;stroke-dashoffset:0;stroke-width:0.3;"/>
   </g>
   <g id="line2d_2">
    <path clip-path="url(#pd639344cc2)" d="M 262.556892 471.339855 
L 262.556892 20.263717 
" style="fill:none;stroke:#808080;stroke-dasharray:1.11,0.48;stroke-dashoffset:0;stroke-width:0.3;"/>
   </g>
   <g id="line2d_3">
    <path clip-path="url(#pd639344cc2)" d="M 191.920021 505 
L 197.594683 497.151594 
L 203.128496 489.127005 
L 208.500832 480.950332 
L 213.678101 472.671687 
L 218.722022 464.186825 
L 223.587965 455.561612 
L 228.241944 446.856259 
L 232.659649 438.1247 
L 236.880596 429.295171 
L 240.926007 420.318542 
L 244.760468 411.270031 
L 248.3977 402.116982 
L 251.809519 392.933096 
L 255.035203 383.61119 
L 258.043735 374.235812 
L 260.837445 364.802586 
L 263.416511 355.312325 
L 265.780343 345.767891 
L 267.928494 336.171133 
L 269.861065 326.520053 
L 271.578745 316.805946 
L 273.075943 307.056286 
L 274.34701 297.317566 
L 275.401108 287.522922 
L 276.23331 277.709495 
L 276.843478 267.880058 
L 277.231116 258.046837 
L 277.396621 248.199116 
L 277.339464 238.348561 
L 277.059701 228.503645 
L 276.558418 218.682521 
L 275.836614 208.886992 
L 274.893801 199.106624 
L 273.726393 189.317188 
L 272.339562 179.568189 
L 270.732644 169.852317 
L 268.90864 160.185669 
L 266.863963 150.54971 
L 264.610489 140.9968 
L 262.133825 131.465528 
L 259.452141 122.025597 
L 256.545303 112.60724 
L 253.436583 103.287167 
L 250.128721 94.067052 
L 246.580784 84.838993 
L 242.859933 75.77767 
L 238.914779 66.754492 
L 234.77469 57.839486 
L 230.415484 48.982489 
L 225.86924 40.249884 
L 221.097011 31.569378 
L 216.127966 22.998411 
L 211.001282 14.600062 
L 205.654892 6.27195 
L 200.763508 -1 
L 200.763508 -1 
" style="fill:none;stroke:#808080;stroke-dasharray:1.11,0.48;stroke-dashoffset:0;stroke-width:0.3;"/>
   </g>
   <g id="line2d_4">
    <path clip-path="url(#pd639344cc2)" d="M -1 319.706866 
L 6.965485 313.797796 
L 14.996323 308.117883 
L 23.197659 302.591565 
L 31.517592 297.255759 
L 39.907873 292.138906 
L 48.470805 287.179082 
L 57.143236 282.415501 
L 65.868022 277.877182 
L 74.717264 273.525352 
L 83.624672 269.392049 
L 92.640481 265.453114 
L 101.795284 261.697969 
L 111.009542 258.160391 
L 120.303533 254.831758 
L 129.60479 251.735611 
L 139.005284 248.840062 
L 148.497635 246.149622 
L 158.008039 243.684797 
L 167.600925 241.428484 
L 177.21487 239.395198 
L 186.912447 237.572149 
L 196.607172 235.97555 
L 206.337811 234.597653 
L 216.111669 233.438008 
L 225.918941 232.498612 
L 235.741077 231.781443 
L 245.553218 231.287377 
L 255.393137 231.014357 
L 265.242717 230.963739 
L 275.093492 231.135857 
L 284.933779 231.530454 
L 294.735544 232.145348 
L 304.521508 232.981061 
L 314.287358 234.037285 
L 324.040259 235.315295 
L 333.757345 236.812401 
L 343.433656 238.527523 
L 353.097352 240.4665 
L 362.707958 242.621977 
L 372.267494 244.99417 
L 381.774 247.582707 
L 391.22464 250.387113 
L 400.618445 253.407629 
L 409.869185 256.614133 
L 419.066485 260.035748 
L 428.233613 263.683859 
L 437.296639 267.530223 
L 446.288285 271.588682 
L 455.133012 275.823689 
L 463.880115 280.256638 
L 472.601388 284.927211 
L 481.092238 289.723759 
L 489.585192 294.777231 
L 497.871858 299.964587 
L 505 304.637887 
L 505 304.637887 
" style="fill:none;stroke:#808080;stroke-dasharray:1.11,0.48;stroke-dashoffset:0;stroke-width:0.3;"/>
   </g>
   <g id="line2d_5">
    <path clip-path="url(#pd639344cc2)" d="M -1 460.770053 
L 5.701676 462.78346 
L 12.401872 464.572733 
L 19.340581 466.195812 
L 26.172215 467.570252 
L 33.206867 468.758045 
L 40.110014 469.702758 
L 47.18019 470.446433 
L 54.392663 470.97392 
L 61.43225 471.26519 
L 68.578088 471.335857 
L 75.530792 471.187242 
L 82.555939 470.818886 
L 89.629094 470.225345 
L 96.72674 469.403372 
L 103.825427 468.35195 
L 110.902707 467.072139 
L 117.937306 465.566925 
L 124.908796 463.841178 
L 131.798276 461.901367 
L 138.588397 459.755382 
L 145.263287 457.412366 
L 151.808638 454.88252 
L 158.380606 452.102379 
L 164.782418 449.153599 
L 171.156651 445.971093 
L 177.328625 442.644 
L 183.428528 439.106027 
L 189.429562 435.369603 
L 195.308142 431.448603 
L 201.043613 427.35819 
L 206.721967 423.032881 
L 212.210914 418.571752 
L 217.589165 413.912179 
L 222.829056 409.074475 
L 227.907282 404.079709 
L 232.805008 398.948961 
L 237.507464 393.70302 
L 242.062586 388.289694 
L 246.447491 382.733789 
L 250.644293 377.059255 
L 254.68396 371.222602 
L 258.544558 365.251139 
L 262.209594 359.17023 
L 265.667494 353.002733 
L 268.939523 346.71157 
L 272.01234 340.320256 
L 274.877093 333.848719 
L 277.548351 327.262187 
L 279.999216 320.627528 
L 282.245246 313.905371 
L 284.282187 307.104508 
L 286.096666 300.272666 
L 287.701615 293.362044 
L 289.087702 286.408256 
L 290.251021 279.437508 
L 291.195944 272.428897 
L 291.920438 265.396736 
L 292.42394 258.349661 
L 292.706428 251.292099 
L 292.767757 244.225766 
L 292.607295 237.15096 
L 292.223796 230.06807 
L 291.619498 223.017912 
L 290.791328 215.967653 
L 289.745113 208.967607 
L 288.477979 201.994813 
L 286.994146 195.072864 
L 285.290867 188.189771 
L 283.37809 181.38386 
L 281.258074 174.656671 
L 278.916146 167.964809 
L 276.371276 161.365302 
L 273.608003 154.820006 
L 270.656028 148.398578 
L 267.501401 142.067187 
L 264.155133 135.847441 
L 260.595463 129.701713 
L 256.87313 123.716268 
L 252.968749 117.854659 
L 248.850963 112.073954 
L 244.585784 106.466978 
L 240.142488 100.98988 
L 235.54135 95.666985 
L 230.735055 90.446657 
L 225.814742 85.427388 
L 220.73083 80.55497 
L 215.504563 75.849985 
L 210.06261 71.251651 
L 204.519464 66.859198 
L 198.79515 62.609542 
L 193.026324 58.601326 
L 187.125541 54.768477 
L 181.114753 51.125474 
L 175.018828 47.685384 
L 168.71134 44.381796 
L 162.360192 41.305685 
L 155.826716 38.391654 
L 149.300908 35.724088 
L 142.630874 33.239061 
L 135.829694 30.947847 
L 129.119969 28.920032 
L 122.328465 27.096157 
L 115.47319 25.482662 
L 108.573469 24.084472 
L 101.64962 22.904797 
L 94.723323 21.945084 
L 87.556949 21.181113 
L 80.416747 20.649244 
L 73.327093 20.346005 
L 66.312249 20.265606 
L 59.105143 20.410298 
L 52.007643 20.77836 
L 45.044613 21.358032 
L 37.928128 22.175946 
L 30.982448 23.196398 
L 23.907377 24.464666 
L 17.039272 25.920478 
L 10.066771 27.629396 
L 3.336764 29.504743 
L -1 30.833519 
L -1 30.833519 
" style="fill:none;stroke:#808080;stroke-dasharray:1.11,0.48;stroke-dashoffset:0;stroke-width:0.3;"/>
   </g>
   <g id="line2d_6">
    <path clip-path="url(#pd639344cc2)" d="M 46.253393 505 
L 44.384535 498.292034 
L 42.675612 491.319531 
L 41.219795 484.451424 
L 39.951484 477.376109 
L 38.931036 470.430431 
L 38.113138 463.314065 
L 37.533473 456.351148 
L 37.165404 449.253535 
L 37.020711 442.046321 
L 37.101108 435.03169 
L 37.404344 427.942033 
L 37.93621 420.801827 
L 38.700201 413.63526 
L 39.659902 406.709058 
L 40.839561 399.785297 
L 42.237768 392.885488 
L 43.851263 386.030213 
L 45.675138 379.238709 
L 47.702953 372.528984 
L 49.994192 365.727732 
L 52.479221 359.057701 
L 55.146787 352.531897 
L 58.06079 345.998486 
L 61.136872 339.647396 
L 64.440459 333.339905 
L 67.961108 327.106373 
L 71.604879 321.103696 
L 75.438176 315.210788 
L 79.446442 309.449705 
L 83.695895 303.732929 
L 88.087787 298.197096 
L 92.685345 292.762174 
L 97.389255 287.54265 
L 102.260435 282.465151 
L 107.354679 277.47846 
L 112.571679 272.684009 
L 117.963975 268.033019 
L 123.43528 263.605604 
L 129.105155 259.304742 
L 134.877366 255.20587 
L 140.795004 251.27759 
L 146.831918 247.538486 
L 152.964249 244.002015 
L 159.228789 240.647241 
L 165.600767 237.489178 
L 172.058905 234.538065 
L 178.585672 231.800157 
L 185.217152 229.260355 
L 191.89042 226.942088 
L 198.646397 224.830004 
L 205.479215 222.927335 
L 212.344911 221.245841 
L 219.251455 219.781983 
L 226.210873 218.533305 
L 233.19976 217.50421 
L 240.241126 216.692142 
L 247.28474 216.10308 
L 254.363491 215.73429 
L 261.436608 215.588197 
L 268.503711 215.663829 
L 275.56445 215.960822 
L 282.617129 216.479304 
L 289.65727 217.219508 
L 296.67619 218.181128 
L 303.659438 219.362348 
L 310.585321 220.75858 
L 317.467259 222.371862 
L 324.314537 224.205495 
L 331.085094 226.248389 
L 337.774573 228.497707 
L 344.424678 230.968574 
L 350.974476 233.639144 
L 357.46079 236.524679 
L 363.809981 239.591271 
L 370.054924 242.851968 
L 376.233542 246.328618 
L 382.261693 249.973853 
L 388.175882 253.807467 
L 394.018971 257.860988 
L 399.699741 262.072487 
L 405.261562 266.472982 
L 410.680469 271.044601 
L 415.931555 275.76438 
L 421.066947 280.6804 
L 425.987045 285.695026 
L 430.747141 290.858848 
L 435.407618 296.244062 
L 439.869412 301.740232 
L 444.195071 307.426092 
L 448.28549 313.169162 
L 452.206198 319.055629 
L 455.942042 325.064859 
L 459.478943 331.172921 
L 462.804649 337.353274 
L 465.985394 343.736292 
L 468.931893 350.146677 
L 471.709341 356.727551 
L 474.23609 363.281736 
L 476.575546 369.965658 
L 478.717418 376.764746 
L 480.652647 383.663392 
L 482.373268 390.643969 
L 483.827227 397.455883 
L 485.10707 404.533342 
L 486.158478 411.631938 
L 486.98045 418.729583 
L 487.573998 425.802839 
L 487.942347 432.827886 
L 488.090963 439.78059 
L 488.020298 446.926318 
L 487.729026 453.966015 
L 487.228457 460.87464 
L 486.495274 467.938062 
L 485.56126 474.835086 
L 484.38482 481.864013 
L 483.021881 488.690373 
L 481.410975 495.624039 
L 479.633872 502.319929 
L 478.86039 505 
L 478.86039 505 
" style="fill:none;stroke:#808080;stroke-dasharray:1.11,0.48;stroke-dashoffset:0;stroke-width:0.3;"/>
   </g>
   <g id="line2d_7">
    <path clip-path="url(#pd639344cc2)" d="M -1 297.731745 
L 0.99691 303.203565 
L 3.207432 308.634018 
L 5.700003 314.156746 
L 8.381011 319.543322 
L 11.240915 324.785677 
L 14.26966 329.876328 
L 17.45701 334.808849 
L 20.923577 339.757667 
L 24.537913 344.524437 
L 28.28799 349.104703 
L 32.161717 353.494875 
L 36.296862 357.844208 
L 40.538946 361.98434 
L 44.875151 365.914377 
L 49.45189 369.763086 
L 54.102407 373.387071 
L 58.976957 376.901331 
L 63.902638 380.179758 
L 69.032106 383.32349 
L 74.188316 386.224077 
L 79.525115 388.969022 
L 84.863345 391.467561 
L 90.3569 393.79392 
L 95.991903 395.93408 
L 101.589345 397.82354 
L 107.300548 399.517559 
L 113.109806 401.006267 
L 119.000923 402.281417 
L 124.80175 403.311801 
L 130.656611 404.129629 
L 136.549346 404.730865 
L 142.463721 405.113014 
L 148.383987 405.275105 
L 154.294474 405.217597 
L 160.180177 404.942321 
L 166.157424 404.438943 
L 172.073258 403.716545 
L 177.914656 402.781382 
L 183.787027 401.615029 
L 189.552807 400.2442 
L 195.310359 398.646191 
L 200.933366 396.857561 
L 206.513497 394.851818 
L 212.030764 392.633427 
L 217.466534 390.208527 
L 222.803831 387.584641 
L 228.027364 384.770451 
L 233.123498 381.775611 
L 238.152173 378.562691 
L 243.022888 375.188568 
L 247.790827 371.615649 
L 252.437312 367.854232 
L 256.946046 363.91543 
L 261.303005 359.810918 
L 265.496441 355.552567 
L 269.51671 351.152211 
L 273.356157 346.621356 
L 277.046145 341.921703 
L 280.538925 337.113717 
L 283.863207 332.158667 
L 286.980954 327.114543 
L 289.9179 321.941666 
L 292.667196 316.648132 
L 295.202591 311.286635 
L 297.544646 305.815464 
L 299.689014 300.238479 
L 301.617487 294.602132 
L 303.331948 288.90541 
L 304.833435 283.145851 
L 306.121941 277.319471 
L 307.189274 271.463123 
L 308.037558 265.568994 
L 308.666868 259.628212 
L 309.07302 253.672429 
L 309.255673 247.73206 
L 309.217025 241.795471 
L 308.956613 235.851037 
L 308.475486 229.928956 
L 307.772651 224.018419 
L 306.852102 218.151589 
L 305.713094 212.319988 
L 304.352917 206.516259 
L 302.779864 200.777837 
L 300.993569 195.101264 
L 298.992676 189.484538 
L 296.794232 183.972698 
L 294.381089 178.522462 
L 291.774643 173.183174 
L 288.953569 167.913309 
L 285.945166 162.766266 
L 282.756635 157.750584 
L 279.361607 152.826771 
L 275.799576 148.053349 
L 272.082956 143.441545 
L 268.18134 138.952857 
L 264.101176 134.598479 
L 259.850806 130.390099 
L 255.440566 126.339594 
L 250.882867 122.458731 
L 246.192568 118.759109 
L 241.386783 115.251615 
L 236.484912 111.946151 
L 231.4311 108.805103 
L 226.235786 105.839561 
L 220.998126 103.103475 
L 215.654589 100.55963 
L 210.22118 98.216137 
L 204.715377 96.079784 
L 199.051069 94.121708 
L 193.344623 92.385625 
L 187.617861 90.874058 
L 181.774729 89.563026 
L 175.949118 88.482688 
L 170.037928 87.613149 
L 164.185802 86.973547 
L 158.282517 86.548683 
L 152.341938 86.342742 
L 146.378975 86.358725 
L 140.408948 86.598312 
L 134.448001 87.06175 
L 128.512169 87.747823 
L 122.618005 88.653737 
L 116.781956 89.77512 
L 111.020297 91.105999 
L 105.348956 92.63882 
L 99.618748 94.418925 
L 94.006788 96.395687 
L 88.527756 98.557397 
L 83.028879 100.967574 
L 77.689709 103.550012 
L 72.356411 106.381266 
L 67.208209 109.367509 
L 62.25592 112.490608 
L 57.345823 115.847254 
L 52.491225 119.440892 
L 47.864704 123.142172 
L 43.316475 127.068661 
L 39.012399 131.073811 
L 34.807086 135.288744 
L 30.713336 139.712349 
L 26.883971 144.17332 
L 23.182765 148.823124 
L 19.62176 153.657891 
L 16.212962 158.672814 
L 13.085383 163.666873 
L 10.120393 168.816659 
L 7.328161 174.115349 
L 4.718518 179.555299 
L 2.390218 184.911341 
L 0.247315 190.382147 
L -1 193.871828 
L -1 193.871828 
" style="fill:none;stroke:#808080;stroke-dasharray:1.11,0.48;stroke-dashoffset:0;stroke-width:0.3;"/>
   </g>
   <g id="line2d_8">
    <path clip-path="url(#pd639344cc2)" d="M 199.373088 505 
L 193.992153 502.558969 
L 188.610983 499.870901 
L 183.374405 497.004357 
L 178.28972 493.969321 
L 173.363327 490.776033 
L 168.421162 487.303779 
L 163.661292 483.684252 
L 159.088006 479.92938 
L 154.704866 476.051248 
L 150.363033 471.912112 
L 146.230338 467.66639 
L 142.171649 463.170551 
L 138.338474 458.588294 
L 134.729933 453.933176 
L 131.231451 449.054736 
L 127.968671 444.126189 
L 124.840781 438.994594 
L 121.955699 433.837115 
L 119.22636 428.49985 
L 116.742981 423.161947 
L 114.431753 417.669496 
L 112.306595 412.036312 
L 110.431586 406.441498 
L 108.75178 400.733576 
L 107.276987 394.928235 
L 106.015421 389.041762 
L 104.997879 383.246066 
L 104.192474 377.396907 
L 103.6032 371.51046 
L 103.232498 365.602743 
L 103.081319 359.68968 
L 103.149167 353.786725 
L 103.443275 347.774189 
L 103.960655 341.809435 
L 104.696087 335.906383 
L 105.643297 330.078117 
L 106.820955 324.21928 
L 108.202082 318.467166 
L 109.809601 312.723514 
L 111.642089 307.010831 
L 113.658142 301.449262 
L 115.885735 295.950679 
L 118.318789 290.533478 
L 120.949771 285.21461 
L 123.770038 280.009256 
L 126.816751 274.855084 
L 130.034957 269.848517 
L 133.461912 264.932172 
L 137.038642 260.189525 
L 140.802755 255.567712 
L 144.743184 251.082958 
L 148.848368 246.749168 
L 153.106523 242.578032 
L 157.505925 238.579135 
L 162.035149 234.76012 
L 166.732572 231.089802 
L 171.537867 227.615685 
L 176.489822 224.309248 
L 181.578299 221.180217 
L 186.746971 218.261996 
L 192.036165 215.530486 
L 197.439135 212.99133 
L 202.905321 210.667473 
L 208.477441 208.540413 
L 214.109169 206.628304 
L 219.80159 204.929373 
L 225.557234 203.442694 
L 231.380144 202.168389 
L 237.233541 201.114674 
L 243.125278 200.279562 
L 249.064261 199.663114 
L 255.01886 199.26957 
L 260.958727 199.099331 
L 266.895447 199.150348 
L 272.840663 199.423234 
L 278.764162 199.917001 
L 284.676737 200.632786 
L 290.546181 201.566649 
L 296.380939 202.719468 
L 302.188325 204.094092 
L 307.930829 205.682247 
L 313.611845 207.484415 
L 319.233304 209.502063 
L 324.750069 211.718109 
L 330.205303 214.149899 
L 335.549645 216.776011 
L 340.777046 219.591262 
L 345.928181 222.61885 
L 350.947726 225.82757 
L 355.825961 229.208574 
L 360.601864 232.789687 
L 365.21569 236.526233 
L 369.705755 240.448717 
L 374.060799 244.550696 
L 378.218953 248.771013 
L 382.218717 253.144269 
L 386.048615 257.657469 
L 389.746671 262.360269 
L 393.252018 267.178839 
L 396.554729 272.093715 
L 399.692377 277.160939 
L 402.653756 282.36991 
L 405.384998 287.621245 
L 407.923231 292.978613 
L 410.260323 298.42594 
L 412.389448 303.945594 
L 414.339396 309.624097 
L 416.066491 315.34452 
L 417.568244 321.084944 
L 418.868503 326.941871 
L 419.937259 332.780699 
L 420.794254 338.705089 
L 421.420599 344.569653 
L 421.831287 350.485209 
L 422.022121 356.437508 
L 421.990132 362.411658 
L 421.733686 368.392146 
L 421.252558 374.363087 
L 420.548059 380.307918 
L 419.623012 386.210362 
L 418.481876 392.053795 
L 417.130706 397.821888 
L 415.577111 403.498795 
L 413.775317 409.23341 
L 411.776481 414.84892 
L 409.592597 420.330126 
L 407.159406 425.830193 
L 404.553941 431.169362 
L 401.792087 436.335019 
L 398.790195 441.4816 
L 395.651568 446.431605 
L 392.279222 451.338419 
L 388.669783 456.188692 
L 384.952918 460.810359 
L 381.010978 465.352559 
L 376.990814 469.650016 
L 372.760815 473.847902 
L 368.322387 477.933169 
L 363.847442 481.753346 
L 359.183797 485.444582 
L 354.335512 488.994726 
L 349.496855 492.268812 
L 344.496694 495.390333 
L 339.340901 498.348953 
L 334.03663 501.134341 
L 328.59141 503.736769 
L 325.740695 505 
L 325.740695 505 
" style="fill:none;stroke:#808080;stroke-dasharray:1.11,0.48;stroke-dashoffset:0;stroke-width:0.3;"/>
   </g>
   <g id="line2d_9">
    <path clip-path="url(#pd639344cc2)" d="M 67.235194 245.801767 
L 67.346526 251.185248 
L 67.680075 256.556412 
L 68.234522 261.903185 
L 69.007665 267.213489 
L 69.99645 272.475484 
L 71.197029 277.677799 
L 72.604747 282.809281 
L 74.259231 287.990946 
L 76.119643 293.075818 
L 78.178705 298.053545 
L 80.428528 302.914497 
L 82.860595 307.649609 
L 85.534976 312.36687 
L 88.381544 316.935134 
L 91.389815 321.347244 
L 94.629821 325.701021 
L 98.016623 329.878407 
L 101.538222 333.8745 
L 105.27301 337.776088 
L 109.12393 341.480271 
L 113.173508 345.065763 
L 117.318126 348.440689 
L 121.643816 351.675678 
L 126.041739 354.690334 
L 130.600606 357.547081 
L 135.310689 360.233229 
L 140.057615 362.686174 
L 144.932412 364.956079 
L 149.923319 367.033192 
L 155.017866 368.908853 
L 160.099452 370.544597 
L 165.259377 371.974654 
L 170.484508 373.193652 
L 175.761479 374.197385 
L 181.076774 374.982804 
L 186.416922 375.548021 
L 191.768616 375.892265 
L 197.118776 376.015831 
L 202.45451 375.920034 
L 207.853978 375.599926 
L 213.210262 375.058934 
L 218.511775 374.301569 
L 223.830733 373.315887 
L 229.068572 372.11905 
L 234.293459 370.695106 
L 239.413269 369.069228 
L 244.492155 367.221762 
L 249.445041 365.18473 
L 254.331987 362.935076 
L 259.138849 360.476329 
L 263.852276 357.812943 
L 268.402167 354.98763 
L 272.840423 351.971648 
L 277.156366 348.770945 
L 281.340178 345.391885 
L 285.382924 341.84109 
L 289.276493 338.125345 
L 293.013543 334.251495 
L 296.587495 330.226287 
L 299.992387 326.056355 
L 303.222842 321.748087 
L 306.27397 317.307564 
L 309.141277 312.740485 
L 311.820532 308.052171 
L 314.284702 303.294218 
L 316.557397 298.424535 
L 318.634442 293.446882 
L 320.495221 288.411604 
L 322.15572 283.274514 
L 323.598786 278.08498 
L 324.825002 272.844881 
L 325.834162 267.555549 
L 326.625187 262.217935 
L 327.192032 256.879853 
L 327.539633 251.494371 
L 327.663762 246.108863 
L 327.565056 240.723354 
L 327.243007 235.337865 
L 326.701746 229.999736 
L 325.936694 224.662044 
L 324.953785 219.372548 
L 323.754216 214.132152 
L 322.338306 208.942149 
L 320.705563 203.804297 
L 318.872989 198.76795 
L 316.824939 193.788812 
L 314.581828 188.917149 
L 312.122835 184.110056 
L 309.472407 179.418726 
L 306.634578 174.847856 
L 303.613636 170.402736 
L 300.414042 166.088909 
L 297.040673 161.912354 
L 293.498906 157.879383 
L 289.794654 153.99651 
L 285.934469 150.270403 
L 281.925575 146.707758 
L 277.775997 143.315269 
L 273.494661 140.099542 
L 269.091145 137.066767 
L 264.516021 134.186778 
L 259.834977 131.504459 
L 255.060251 129.024963 
L 250.205193 126.752803 
L 245.211956 124.663147 
L 240.161482 122.791596 
L 235.069394 121.139994 
L 229.871805 119.6883 
L 224.660226 118.462115 
L 219.366773 117.445069 
L 214.08942 116.654873 
L 208.756225 116.079127 
L 203.378711 115.722375 
L 197.968752 115.588356 
L 192.635402 115.676348 
L 187.298893 115.983572 
L 181.972355 116.51041 
L 176.668859 117.25621 
L 171.401757 118.21921 
L 166.184579 119.39648 
L 161.030443 120.783997 
L 155.84872 122.411476 
L 150.755445 124.247448 
L 145.763714 126.284549 
L 140.885971 128.514293 
L 136.13397 130.927102 
L 131.416473 133.572444 
L 126.848081 136.388697 
L 122.438456 139.363418 
L 118.098679 142.558245 
L 113.937838 145.893916 
L 109.869543 149.44033 
L 105.997988 153.106594 
L 102.240099 156.970787 
L 98.693523 160.931106 
L 95.279505 165.073436 
L 92.00993 169.393212 
L 88.970575 173.773354 
L 86.090845 178.310888 
L 83.381229 182.998919 
L 80.912843 187.707231 
L 78.624924 192.543086 
L 76.526091 197.497568 
L 74.624295 202.561332 
L 72.926994 207.724067 
L 71.476333 212.839265 
L 70.231758 218.027472 
L 69.198029 223.277886 
L 68.379204 228.579001 
L 67.778505 233.919089 
L 67.398309 239.286169 
L 67.240131 244.667979 
L 67.235194 245.801806 
L 67.235194 245.801806 
" style="fill:none;stroke:#808080;stroke-dasharray:1.11,0.48;stroke-dashoffset:0;stroke-width:0.3;"/>
   </g>
   <g id="line2d_10">
    <path clip-path="url(#pd639344cc2)" d="M 262.556911 441.123483 
L 257.17343 441.012152 
L 251.802266 440.678602 
L 246.455493 440.124156 
L 241.145189 439.351013 
L 235.883193 438.362228 
L 230.680879 437.161649 
L 225.549397 435.753931 
L 220.367731 434.099447 
L 215.28286 432.239035 
L 210.305132 430.179973 
L 205.444181 427.93015 
L 200.709069 425.498083 
L 195.991807 422.823702 
L 191.423544 419.977134 
L 187.011433 416.968863 
L 182.657657 413.728857 
L 178.480271 410.342055 
L 174.484178 406.820456 
L 170.58259 403.085668 
L 166.878407 399.234748 
L 163.292914 395.18517 
L 159.917989 391.040552 
L 156.683 386.714862 
L 153.668344 382.316939 
L 150.811597 377.758072 
L 148.125448 373.047989 
L 145.672504 368.301062 
L 143.402598 363.426266 
L 141.325485 358.435359 
L 139.449825 353.340812 
L 137.814081 348.259226 
L 136.384024 343.099301 
L 135.165026 337.87417 
L 134.161293 332.597198 
L 133.375873 327.281904 
L 132.810656 321.941755 
L 132.466413 316.590062 
L 132.342847 311.239902 
L 132.438644 305.904168 
L 132.758752 300.504699 
L 133.299744 295.148416 
L 134.057109 289.846903 
L 135.042791 284.527945 
L 136.239628 279.290106 
L 137.663572 274.065219 
L 139.28945 268.945409 
L 141.136916 263.866523 
L 143.173948 258.913637 
L 145.423601 254.026691 
L 147.882349 249.219829 
L 150.545735 244.506402 
L 153.371048 239.956511 
L 156.38703 235.518255 
L 159.587733 231.202311 
L 162.966793 227.0185 
L 166.517588 222.975754 
L 170.233333 219.082185 
L 174.107182 215.345135 
L 178.132391 211.771183 
L 182.302322 208.366291 
L 186.610591 205.135836 
L 191.051114 202.084708 
L 195.618193 199.217401 
L 200.306507 196.538146 
L 205.06446 194.073976 
L 209.934143 191.801281 
L 214.911796 189.724236 
L 219.947074 187.863457 
L 225.084164 186.202958 
L 230.273698 184.759892 
L 235.513797 183.533676 
L 240.803129 182.524516 
L 246.140743 181.733491 
L 251.478825 181.166646 
L 256.864306 180.819045 
L 262.249815 180.694916 
L 267.635324 180.793622 
L 273.020812 181.115671 
L 278.358941 181.656931 
L 283.696634 182.421984 
L 288.98613 183.404892 
L 294.226526 184.604462 
L 299.416529 186.020372 
L 304.554381 187.653115 
L 309.590728 189.485689 
L 314.569866 191.533739 
L 319.441529 193.77685 
L 324.248622 196.235843 
L 328.939952 198.88627 
L 333.510822 201.724099 
L 337.955942 204.745041 
L 342.269768 207.944636 
L 346.446324 211.318005 
L 350.479295 214.859772 
L 354.362168 218.564023 
L 358.088275 222.424209 
L 361.65092 226.433103 
L 365.043409 230.582681 
L 368.259136 234.864016 
L 371.291911 239.267533 
L 374.171899 243.842657 
L 376.854219 248.523701 
L 379.333715 253.298427 
L 381.605875 258.153484 
L 383.69553 263.146722 
L 385.567082 268.197196 
L 387.218684 273.289284 
L 388.670378 278.486873 
L 389.896563 283.698452 
L 390.913609 288.991905 
L 391.703805 294.269258 
L 392.279551 299.602453 
L 392.636303 304.979967 
L 392.770322 310.389926 
L 392.68233 315.723276 
L 392.375106 321.059785 
L 391.848268 326.386323 
L 391.102468 331.689819 
L 390.139467 336.95692 
L 388.962198 342.174099 
L 387.574681 347.328234 
L 385.947202 352.509958 
L 384.11123 357.603232 
L 382.074128 362.594964 
L 379.844385 367.472707 
L 377.431576 372.224708 
L 374.786233 376.942205 
L 371.969981 381.510596 
L 368.99526 385.920222 
L 365.800433 390.259999 
L 362.464762 394.42084 
L 358.918347 398.489134 
L 355.252084 402.36069 
L 351.387891 406.118579 
L 347.427572 409.665155 
L 343.285242 413.079172 
L 338.965466 416.348748 
L 334.585324 419.388103 
L 330.04779 422.267833 
L 325.359759 424.977449 
L 320.651446 427.445835 
L 315.815592 429.733754 
L 310.86111 431.832587 
L 305.797346 433.734382 
L 300.63461 435.431684 
L 295.519413 436.882345 
L 290.331206 438.12692 
L 285.080791 439.160649 
L 279.779676 439.979474 
L 274.439589 440.580173 
L 269.072509 440.960368 
L 263.690699 441.118547 
L 262.556872 441.123483 
L 262.556872 441.123483 
" style="fill:none;stroke:#808080;stroke-dasharray:1.11,0.48;stroke-dashoffset:0;stroke-width:0.3;"/>
   </g>
   <g id="line2d_11">
    <path clip-path="url(#pd639344cc2)" d="M 115.593425 245.801773 
L 115.703357 250.867018 
L 116.03278 255.92077 
L 116.580564 260.951597 
L 117.344839 265.948192 
L 118.323009 270.899426 
L 119.536203 275.886172 
L 120.963777 280.803291 
L 122.600831 285.640021 
L 124.441776 290.385924 
L 126.480399 295.031037 
L 128.709962 299.56601 
L 131.169525 304.062528 
L 133.811393 308.426824 
L 136.626929 312.650816 
L 139.607138 316.727128 
L 142.801015 320.718816 
L 146.145826 324.544145 
L 149.631144 328.197437 
L 153.312245 331.734411 
L 157.116944 335.083911 
L 161.103771 338.296164 
L 165.19535 341.307861 
L 169.452893 344.16352 
L 173.794759 346.808113 
L 178.284454 349.280412 
L 182.836985 351.533921 
L 187.517575 353.601545 
L 192.238971 355.445528 
L 197.067597 357.092869 
L 201.993097 358.535624 
L 206.926202 359.749128 
L 211.934109 360.751613 
L 217.005479 361.53735 
L 222.051321 362.094592 
L 227.138386 362.432923 
L 232.255057 362.54885 
L 237.314552 362.442874 
L 242.382171 362.116229 
L 247.446487 361.567472 
L 252.496048 360.795868 
L 257.519493 359.801363 
L 262.437066 358.60286 
L 267.309474 357.188754 
L 272.126102 355.560575 
L 276.876554 353.720394 
L 281.550665 351.67079 
L 286.138536 349.414805 
L 290.630522 346.955926 
L 294.962088 344.333118 
L 299.183711 341.519455 
L 303.286788 338.519159 
L 307.262999 335.336731 
L 311.10426 331.976942 
L 314.802782 328.44475 
L 318.309416 324.790603 
L 321.663178 320.977228 
L 324.856998 317.00983 
L 327.884007 312.893711 
L 330.705487 308.684356 
L 333.351691 304.33919 
L 335.816132 299.86362 
L 338.067751 295.315792 
L 340.129744 290.650057 
L 341.976009 285.925892 
L 343.624844 281.096029 
L 345.05501 276.220992 
L 346.279795 271.252243 
L 347.282699 266.251232 
L 348.064421 261.224591 
L 348.625522 256.178801 
L 348.966411 251.120214 
L 349.08734 246.055096 
L 348.988399 240.989667 
L 348.669514 235.930146 
L 348.13045 230.882792 
L 347.370811 225.853947 
L 346.390055 220.850077 
L 345.187497 215.877815 
L 343.779393 210.998598 
L 342.152706 206.163825 
L 340.328456 201.434119 
L 338.288573 196.762065 
L 336.058916 192.20721 
L 333.616524 187.723776 
L 330.99223 183.370029 
L 328.15831 179.102196 
L 325.150671 174.976931 
L 321.976047 170.99967 
L 318.641243 167.175649 
L 315.109636 163.466146 
L 311.427461 159.923151 
L 307.602322 156.551882 
L 303.641924 153.35724 
L 299.554333 150.344007 
L 295.347801 147.516656 
L 290.973841 144.846262 
L 286.494272 142.374249 
L 281.918359 140.104473 
L 277.255743 138.040443 
L 272.516292 136.18522 
L 267.71013 134.541394 
L 262.847564 133.111039 
L 257.869339 131.880043 
L 252.853118 130.870861 
L 247.81023 130.084146 
L 242.751907 129.519856 
L 237.689613 129.177297 
L 232.634714 129.055062 
L 227.52201 129.154171 
L 222.438096 129.475408 
L 217.394685 130.015318 
L 212.324893 130.783271 
L 207.31774 131.767823 
L 202.38451 132.96331 
L 197.457991 134.387723 
L 192.627385 136.016764 
L 187.903225 137.842483 
L 183.218792 139.89173 
L 178.661621 142.127006 
L 174.166205 144.58107 
L 169.817742 147.207737 
L 165.552564 150.045569 
L 161.45253 153.039848 
L 157.456214 156.234912 
L 153.641205 159.56779 
L 149.948837 163.088457 
L 146.390207 166.792749 
L 143.035057 170.605918 
L 139.830063 174.58592 
L 136.83824 178.651219 
L 134.010401 182.864738 
L 131.355625 187.219065 
L 128.882504 191.706285 
L 126.639083 196.232738 
L 124.586066 200.870039 
L 122.730284 205.608747 
L 121.077926 210.4391 
L 119.634649 215.350663 
L 118.405422 220.332634 
L 117.411235 225.28 
L 116.630718 230.273556 
L 116.066521 235.302193 
L 115.720571 240.354613 
L 115.594051 245.419391 
L 115.593425 245.8018 
L 115.593425 245.8018 
" style="fill:none;stroke:#808080;stroke-dasharray:1.11,0.48;stroke-dashoffset:0;stroke-width:0.3;"/>
   </g>
   <g id="line2d_12">
    <path clip-path="url(#pd639344cc2)" d="M 262.556905 392.765253 
L 257.49166 392.65532 
L 252.437908 392.325898 
L 247.40708 391.778114 
L 242.410486 391.013839 
L 237.459252 390.035669 
L 232.472505 388.822475 
L 227.555387 387.394901 
L 222.718657 385.757847 
L 217.972753 383.916902 
L 213.327641 381.878278 
L 208.792668 379.648716 
L 204.29615 377.189153 
L 199.931853 374.547285 
L 195.707862 371.731749 
L 191.63155 368.75154 
L 187.639862 365.557662 
L 183.814533 362.212852 
L 180.16124 358.727534 
L 176.624266 355.046433 
L 173.274767 351.241734 
L 170.062514 347.254907 
L 167.050817 343.163328 
L 164.195158 338.905785 
L 161.550564 334.563919 
L 159.078266 330.074224 
L 156.824757 325.521693 
L 154.757133 320.841103 
L 152.91315 316.119706 
L 151.265809 311.291081 
L 149.823054 306.365581 
L 148.60955 301.432476 
L 147.607065 296.424568 
L 146.821328 291.353199 
L 146.264086 286.307357 
L 145.925755 281.220292 
L 145.809828 276.103621 
L 145.915804 271.044126 
L 146.242449 265.976507 
L 146.791206 260.912191 
L 147.562809 255.86263 
L 148.557315 250.839185 
L 149.755818 245.921612 
L 151.169924 241.049204 
L 152.798103 236.232576 
L 154.638284 231.482124 
L 156.687888 226.808013 
L 158.943873 222.220142 
L 161.402752 217.728156 
L 164.025559 213.39659 
L 166.839223 209.174967 
L 169.839519 205.071889 
L 173.021947 201.095679 
L 176.381736 197.254418 
L 179.913928 193.555895 
L 183.568075 190.049262 
L 187.38145 186.6955 
L 191.348848 183.50168 
L 195.464967 180.474671 
L 199.674322 177.653191 
L 204.019488 175.006987 
L 208.495058 172.542545 
L 213.042885 170.290927 
L 217.708621 168.228934 
L 222.432786 166.382669 
L 227.262649 164.733834 
L 232.137686 163.303668 
L 237.106435 162.078882 
L 242.107446 161.075979 
L 247.134087 160.294257 
L 252.179877 159.733155 
L 257.238464 159.392266 
L 262.303582 159.271338 
L 267.369011 159.370279 
L 272.428532 159.689163 
L 277.475886 160.228228 
L 282.504731 160.987866 
L 287.508601 161.968623 
L 292.480863 163.171181 
L 297.36008 164.579285 
L 302.194853 166.205972 
L 306.924559 168.030222 
L 311.596613 170.070105 
L 316.151468 172.299762 
L 320.634902 174.742154 
L 324.988649 177.366448 
L 329.256482 180.200368 
L 333.381747 183.208007 
L 337.359008 186.382631 
L 341.183029 189.717435 
L 344.892532 193.249041 
L 348.435527 196.931217 
L 351.806796 200.756356 
L 355.001437 204.716754 
L 358.014671 208.804345 
L 360.842022 213.010877 
L 363.512416 217.384837 
L 365.984428 221.864406 
L 368.254205 226.440318 
L 370.318234 231.102935 
L 372.173458 235.842386 
L 373.817284 240.648548 
L 375.247639 245.511114 
L 376.478635 250.489338 
L 377.487817 255.50556 
L 378.274532 260.548448 
L 378.838822 265.60677 
L 379.181381 270.669065 
L 379.303616 275.723964 
L 379.204507 280.836668 
L 378.88327 285.920582 
L 378.34336 290.963993 
L 377.575407 296.033785 
L 376.590855 301.040938 
L 375.395368 305.974168 
L 373.970955 310.900686 
L 372.341914 315.731293 
L 370.516194 320.455453 
L 368.466948 325.139886 
L 366.231672 329.697056 
L 363.777607 334.192473 
L 361.150941 338.540935 
L 358.313109 342.806114 
L 355.31883 346.906148 
L 352.123766 350.902464 
L 348.790887 354.717473 
L 345.270221 358.409841 
L 341.565928 361.968471 
L 337.75276 365.32362 
L 333.772757 368.528615 
L 329.707459 371.520438 
L 325.493939 374.348277 
L 321.139613 377.003053 
L 316.652393 379.476174 
L 312.12594 381.719594 
L 307.488639 383.772612 
L 302.749931 385.628394 
L 297.919578 387.280751 
L 293.008015 388.724029 
L 288.026044 389.953256 
L 283.078678 390.947443 
L 278.085121 391.72796 
L 273.056484 392.292157 
L 268.004065 392.638107 
L 262.939287 392.764627 
L 262.556878 392.765253 
L 262.556878 392.765253 
" style="fill:none;stroke:#808080;stroke-dasharray:1.11,0.48;stroke-dashoffset:0;stroke-width:0.3;"/>
   </g>
   <g id="line2d_13">
    <path clip-path="url(#pd639344cc2)" d="M 149.787857 245.801776 
L 149.900072 250.831301 
L 150.236492 255.850817 
L 150.796453 260.850359 
L 151.578834 265.819926 
L 152.582081 270.749653 
L 153.804196 275.62973 
L 155.242747 280.450444 
L 156.894881 285.202226 
L 158.757293 289.87557 
L 160.826283 294.461199 
L 163.097735 298.949987 
L 165.567141 303.333024 
L 168.229546 307.601519 
L 171.079707 311.747066 
L 174.11191 315.761348 
L 177.320133 319.636399 
L 180.69801 323.364526 
L 184.238782 326.938269 
L 187.935421 330.350537 
L 191.78057 333.594539 
L 195.766576 336.663818 
L 199.885528 339.552281 
L 204.129162 342.254135 
L 208.489123 344.764059 
L 212.956665 347.077018 
L 217.52292 349.188422 
L 222.178813 351.094074 
L 226.915053 352.790171 
L 231.722239 354.273346 
L 236.590779 355.540641 
L 241.511009 356.589538 
L 246.473111 357.417946 
L 251.467222 358.024219 
L 256.483417 358.40715 
L 261.511686 358.565977 
L 266.542048 358.500383 
L 271.564466 358.210499 
L 276.568957 357.696903 
L 281.545575 356.960614 
L 286.484389 356.003102 
L 291.375597 354.826267 
L 296.209437 353.432457 
L 300.976302 351.824444 
L 305.666719 350.005423 
L 310.271327 347.979023 
L 314.780976 345.749273 
L 319.186689 343.320611 
L 323.479722 340.697855 
L 327.651486 337.886253 
L 331.693699 334.891387 
L 335.598319 331.719218 
L 339.357574 328.376058 
L 342.964001 324.868542 
L 346.410385 321.203688 
L 349.689886 317.388772 
L 352.795977 313.431385 
L 355.722477 309.339404 
L 358.463576 305.120949 
L 361.013789 300.784461 
L 363.368056 296.338548 
L 365.521691 291.792059 
L 367.470419 287.154016 
L 369.21034 282.433699 
L 370.738003 277.640479 
L 372.050366 272.783894 
L 373.144819 267.87361 
L 374.019187 262.919373 
L 374.671721 257.931096 
L 375.101127 252.918679 
L 375.306551 247.892098 
L 375.287584 242.861357 
L 375.044262 237.836441 
L 374.577071 232.827405 
L 373.886941 227.84419 
L 372.975245 222.896713 
L 371.843798 217.994822 
L 370.494843 213.148245 
L 368.93108 208.366681 
L 367.155614 203.659618 
L 365.171979 199.036426 
L 362.984123 194.506305 
L 360.596385 190.078247 
L 358.013545 185.761113 
L 355.24073 181.56347 
L 352.283458 177.493672 
L 349.147614 173.559819 
L 345.839423 169.76972 
L 342.365502 166.130958 
L 338.732748 162.650755 
L 334.948391 159.336036 
L 331.019942 156.193383 
L 326.955282 153.229099 
L 322.762414 150.449019 
L 318.449772 147.858736 
L 314.025848 145.46335 
L 309.49949 143.267657 
L 304.879757 141.276047 
L 300.175745 139.49244 
L 295.396915 137.920426 
L 290.552677 136.563097 
L 285.652722 135.423175 
L 280.706854 134.502936 
L 275.724813 133.804193 
L 270.716618 133.328349 
L 265.69213 133.076344 
L 260.661402 133.048683 
L 255.634501 133.24542 
L 250.621323 133.666166 
L 245.631952 134.310076 
L 240.676211 135.175881 
L 235.764017 136.261853 
L 230.905198 137.565815 
L 226.109319 139.085201 
L 221.386028 140.816953 
L 216.744625 142.757663 
L 212.194396 144.90345 
L 207.744445 147.250019 
L 203.403534 149.792748 
L 199.180394 152.526523 
L 195.083339 155.445963 
L 191.120569 158.545228 
L 187.300012 161.818114 
L 183.629189 165.258178 
L 180.115447 168.858539 
L 176.765814 172.611991 
L 173.586885 176.511144 
L 170.585055 180.548155 
L 167.766233 184.715076 
L 165.136063 189.003571 
L 162.699804 193.405058 
L 160.462253 197.91087 
L 158.42791 202.511946 
L 156.600781 207.199224 
L 154.984525 211.96333 
L 153.582373 216.794728 
L 152.397085 221.683908 
L 151.431045 226.621034 
L 150.686155 231.596385 
L 150.16391 236.600008 
L 149.86535 241.621891 
L 149.787857 245.801796 
L 149.787857 245.801796 
" style="fill:none;stroke:#808080;stroke-dasharray:1.11,0.48;stroke-dashoffset:0;stroke-width:0.3;"/>
   </g>
   <g id="line2d_14">
    <path clip-path="url(#pd639344cc2)" d="M 262.556901 358.570821 
L 257.527377 358.458606 
L 252.507861 358.122186 
L 247.508318 357.562225 
L 242.538752 356.779844 
L 237.609024 355.776597 
L 232.728948 354.554482 
L 227.908234 353.115931 
L 223.156451 351.463797 
L 218.483108 349.601385 
L 213.897479 347.532395 
L 209.408691 345.260943 
L 205.025653 342.791537 
L 200.757159 340.129132 
L 196.611612 337.27897 
L 192.59733 334.246768 
L 188.722279 331.038545 
L 184.994152 327.660668 
L 181.420408 324.119895 
L 178.00814 320.423256 
L 174.764139 316.578108 
L 171.69486 312.592102 
L 168.806397 308.47315 
L 166.104543 304.229516 
L 163.594618 299.869555 
L 161.281659 295.402013 
L 159.170255 290.835758 
L 157.264604 286.179865 
L 155.568507 281.443625 
L 154.085331 276.636438 
L 152.818037 271.767899 
L 151.76914 266.847669 
L 150.940732 261.885567 
L 150.334459 256.891456 
L 149.951527 251.875261 
L 149.792701 246.846992 
L 149.858295 241.81663 
L 150.148179 236.794212 
L 150.661775 231.78972 
L 151.398064 226.813102 
L 152.355576 221.874288 
L 153.532411 216.983081 
L 154.926221 212.149241 
L 156.534234 207.382376 
L 158.353255 202.691959 
L 160.379655 198.087351 
L 162.609405 193.577702 
L 165.038067 189.171989 
L 167.660823 184.878955 
L 170.472425 180.707192 
L 173.467291 176.664978 
L 176.63946 172.760359 
L 179.98262 169.001104 
L 183.490136 165.394677 
L 187.15499 161.948293 
L 190.969906 158.668792 
L 194.927293 155.562701 
L 199.019274 152.636201 
L 203.237729 149.895102 
L 207.574217 147.344889 
L 212.02013 144.990622 
L 216.566619 142.836987 
L 221.204662 140.888259 
L 225.924979 139.148338 
L 230.718199 137.620675 
L 235.574784 136.308312 
L 240.485068 135.213859 
L 245.439305 134.339491 
L 250.427582 133.686957 
L 255.439999 133.257551 
L 260.46658 133.052127 
L 265.497321 133.071094 
L 270.522236 133.314416 
L 275.531273 133.781607 
L 280.514488 134.471737 
L 285.461965 135.383433 
L 290.363856 136.51488 
L 295.210433 137.863835 
L 299.991997 139.427598 
L 304.69906 141.203063 
L 309.322252 143.186699 
L 313.852373 145.374555 
L 318.28043 147.762292 
L 322.597565 150.345133 
L 326.795208 153.117948 
L 330.865006 156.07522 
L 334.798859 159.211063 
L 338.588958 162.519255 
L 342.22772 165.993176 
L 345.707923 169.62593 
L 349.022641 173.410286 
L 352.165295 177.338736 
L 355.129579 181.403396 
L 357.909659 185.596264 
L 360.499941 189.908905 
L 362.895327 194.33283 
L 365.091021 198.859188 
L 367.082631 203.478921 
L 368.866237 208.182933 
L 370.438252 212.961763 
L 371.79558 217.806001 
L 372.935503 222.705956 
L 373.855741 227.651823 
L 374.554485 232.633865 
L 375.030328 237.64206 
L 375.282334 242.666548 
L 375.309995 247.697275 
L 375.113258 252.724177 
L 374.692512 257.737355 
L 374.048602 262.726726 
L 373.182797 267.682467 
L 372.096825 272.594661 
L 370.792863 277.45348 
L 369.273477 282.249359 
L 367.541725 286.972649 
L 365.601015 291.614053 
L 363.455227 296.164282 
L 361.108659 300.614232 
L 358.56593 304.955144 
L 355.832154 309.178284 
L 352.912715 313.275339 
L 349.81345 317.238108 
L 346.540564 321.058666 
L 343.1005 324.729489 
L 339.500139 328.243231 
L 335.746687 331.592864 
L 331.847534 334.771793 
L 327.810523 337.773623 
L 323.643602 340.592445 
L 319.355107 343.222615 
L 314.95362 345.658874 
L 310.447808 347.896425 
L 305.846732 349.930768 
L 301.159453 351.757897 
L 296.395348 353.374153 
L 291.563949 354.776305 
L 286.67477 355.961593 
L 281.737644 356.927633 
L 276.762293 357.672523 
L 271.75867 358.194768 
L 266.736787 358.493328 
L 262.556882 358.570821 
L 262.556882 358.570821 
" style="fill:none;stroke:#808080;stroke-dasharray:1.11,0.48;stroke-dashoffset:0;stroke-width:0.3;"/>
   </g>
   <g id="line2d_15">
    <path clip-path="url(#pd639344cc2)" d="M 176.026168 245.801778 
L 176.136103 250.86706 
L 176.465989 255.926121 
L 177.016071 260.972701 
L 177.786751 266.000453 
L 178.778579 271.002902 
L 179.992247 275.973405 
L 181.411387 280.850562 
L 183.049142 285.682879 
L 184.884402 290.409834 
L 186.935339 295.078738 
L 189.175976 299.63009 
L 191.629386 304.109593 
L 194.264639 308.45907 
L 197.075243 312.673104 
L 200.091355 316.794378 
L 203.274399 320.767362 
L 206.617473 324.586709 
L 210.157393 328.291193 
L 213.847733 331.828787 
L 217.680961 335.194349 
L 221.649248 338.382879 
L 225.744593 341.38966 
L 229.958657 344.210168 
L 234.282866 346.840184 
L 238.767624 349.306739 
L 243.348504 351.570768 
L 248.015918 353.628797 
L 252.759956 355.477761 
L 257.57049 357.115078 
L 262.437134 358.538664 
L 267.349335 359.746984 
L 272.367704 360.751764 
L 277.412626 361.533956 
L 282.472752 362.09359 
L 287.536662 362.431381 
L 292.59291 362.548742 
L 297.706835 362.444592 
L 302.79168 362.118232 
L 307.835857 361.573123 
L 312.906118 360.79984 
L 317.9135 359.809912 
L 322.8467 358.609023 
L 327.77292 357.17911 
L 332.602929 355.544585 
L 337.32628 353.713384 
L 342.009557 351.658631 
L 346.565355 349.417881 
L 351.059045 346.958358 
L 355.405538 344.326314 
L 359.668443 341.483128 
L 363.765942 338.483628 
L 367.759421 335.283407 
L 371.571372 331.945517 
L 375.260361 328.419962 
L 378.815297 324.710928 
L 382.16656 320.893216 
L 385.367414 316.908801 
L 388.354887 312.839369 
L 391.178106 308.621936 
L 393.828059 304.263847 
L 396.29609 299.773154 
L 398.53432 295.243502 
L 400.581936 290.603286 
L 402.432175 285.861832 
L 404.078798 281.029081 
L 405.516183 276.11545 
L 406.739402 271.131681 
L 407.727585 266.182858 
L 408.502015 261.188154 
L 409.060059 256.158688 
L 409.399813 251.105762 
L 409.520114 246.040801 
L 409.420549 240.975298 
L 409.10146 235.920746 
L 408.563939 230.888582 
L 407.809822 225.890121 
L 406.841672 220.936501 
L 405.638511 215.946801 
L 404.220758 211.026219 
L 402.593283 206.185532 
L 400.761658 201.435234 
L 398.732028 196.785212 
L 396.511147 192.244939 
L 394.060068 187.742614 
L 391.426302 183.372128 
L 388.618466 179.141593 
L 385.645541 175.058417 
L 382.458637 171.059442 
L 379.120366 167.226586 
L 375.641077 163.565482 
L 371.965652 160.020379 
L 368.166141 156.662579 
L 364.18409 153.441741 
L 360.096812 150.421369 
L 355.843078 147.556773 
L 351.504542 144.903218 
L 347.017697 142.42178 
L 342.467602 140.159196 
L 337.788876 138.082341 
L 333.068979 136.229255 
L 328.241283 134.572726 
L 323.31632 133.120794 
L 318.383304 131.898274 
L 313.375066 130.886818 
L 308.38079 130.102653 
L 303.333356 129.533266 
L 298.244068 129.182943 
L 293.124676 129.05522 
L 288.061945 129.149792 
L 282.990627 129.465273 
L 277.92214 130.003132 
L 272.867946 130.764129 
L 267.839497 131.748327 
L 262.916529 132.937001 
L 258.038409 134.341595 
L 253.21571 135.960609 
L 248.458855 137.791984 
L 243.778033 139.833151 
L 239.183179 142.081069 
L 234.683994 144.53224 
L 230.345054 147.147831 
L 226.115887 149.954624 
L 222.005072 152.948421 
L 218.020959 156.124714 
L 214.171631 159.478744 
L 210.464946 163.005499 
L 206.9501 166.654652 
L 203.588053 170.463333 
L 200.38584 174.426383 
L 197.350356 178.538476 
L 194.520426 182.744161 
L 191.865703 187.085958 
L 189.392669 191.558473 
L 187.132518 196.103526 
L 185.061915 200.766803 
L 183.207098 205.488764 
L 181.549645 210.316707 
L 180.110897 215.190099 
L 178.877471 220.157434 
L 177.865953 225.157315 
L 177.075639 230.183082 
L 176.505966 235.228246 
L 176.156518 240.286453 
L 176.027037 245.351434 
L 176.026168 245.801794 
L 176.026168 245.801794 
" style="fill:none;stroke:#808080;stroke-dasharray:1.11,0.48;stroke-dashoffset:0;stroke-width:0.3;"/>
   </g>
   <g id="line2d_16">
    <path clip-path="url(#pd639344cc2)" d="M 262.556899 332.33251 
L 257.491618 332.222575 
L 252.432556 331.892689 
L 247.385977 331.342607 
L 242.358225 330.571927 
L 237.355776 329.580099 
L 232.385273 328.366431 
L 227.508116 326.947291 
L 222.675799 325.309535 
L 217.948844 323.474276 
L 213.279939 321.423339 
L 208.728588 319.182702 
L 204.249085 316.729292 
L 199.899607 314.094038 
L 195.685574 311.283435 
L 191.5643 308.267323 
L 187.591316 305.084279 
L 183.771969 301.741205 
L 180.067485 298.201285 
L 176.529891 294.510945 
L 173.164328 290.677717 
L 169.975799 286.70943 
L 166.969018 282.614084 
L 164.14851 278.400021 
L 161.518494 274.075811 
L 159.051939 269.591054 
L 156.78791 265.010174 
L 154.729881 260.34276 
L 152.880917 255.598722 
L 151.243599 250.788188 
L 149.820014 245.921544 
L 148.611694 241.009342 
L 147.606914 235.990973 
L 146.824722 230.946052 
L 146.265087 225.885926 
L 145.927297 220.822016 
L 145.809936 215.765767 
L 145.914086 210.651843 
L 146.240446 205.566998 
L 146.785554 200.522821 
L 147.558838 195.45256 
L 148.548766 190.445178 
L 149.749655 185.511978 
L 151.179568 180.585757 
L 152.814092 175.755749 
L 154.645294 171.032398 
L 156.700046 166.349121 
L 158.940797 161.793322 
L 161.40032 157.299633 
L 164.032364 152.95314 
L 166.87555 148.690235 
L 169.87505 144.592736 
L 173.075271 140.599257 
L 176.413161 136.787306 
L 179.938716 133.098317 
L 183.64775 129.54338 
L 187.465462 126.192118 
L 191.449877 122.991264 
L 195.519309 120.003791 
L 199.736742 117.180572 
L 204.094831 114.530619 
L 208.585523 112.062588 
L 213.115176 109.824358 
L 217.755392 107.776742 
L 222.496846 105.926503 
L 227.329597 104.27988 
L 232.243228 102.842494 
L 237.226997 101.619276 
L 242.17582 100.631092 
L 247.170524 99.856663 
L 252.199989 99.298619 
L 257.252916 98.958865 
L 262.317877 98.838564 
L 267.38338 98.938129 
L 272.437932 99.257218 
L 277.470096 99.794739 
L 282.468557 100.548856 
L 287.422177 101.517006 
L 292.411877 102.720167 
L 297.332459 104.137919 
L 302.173146 105.765395 
L 306.923443 107.59702 
L 311.573466 109.62665 
L 316.113738 111.847531 
L 320.616064 114.29861 
L 324.98655 116.932376 
L 329.217085 119.740212 
L 333.300261 122.713137 
L 337.299236 125.900041 
L 341.132092 129.238312 
L 344.793196 132.717601 
L 348.338299 136.393026 
L 351.696098 140.192536 
L 354.916937 144.174587 
L 357.937309 148.261866 
L 360.801905 152.5156 
L 363.45546 156.854136 
L 365.936898 161.340981 
L 368.199482 165.891076 
L 370.276337 170.569802 
L 372.129423 175.289699 
L 373.785952 180.117395 
L 375.237883 185.042357 
L 376.460404 189.975374 
L 377.47186 194.983612 
L 378.256025 199.977888 
L 378.825411 205.025322 
L 379.175735 210.11461 
L 379.303458 215.234001 
L 379.208886 220.296733 
L 378.893405 225.368051 
L 378.355546 230.436538 
L 377.594549 235.490732 
L 376.610351 240.519181 
L 375.421676 245.442149 
L 374.017082 250.320269 
L 372.398069 255.142968 
L 370.566694 259.899823 
L 368.525527 264.580644 
L 366.277608 269.175499 
L 363.826438 273.674684 
L 361.210847 278.013624 
L 358.404054 282.242791 
L 355.410257 286.353606 
L 352.233964 290.337718 
L 348.879934 294.187047 
L 345.353179 297.893732 
L 341.704026 301.408578 
L 337.895345 304.770625 
L 333.932295 307.972838 
L 329.820202 311.008322 
L 325.614517 313.838252 
L 321.27272 316.492975 
L 316.800204 318.966009 
L 312.255152 321.22616 
L 307.591875 323.296763 
L 302.869913 325.15158 
L 298.041971 326.809033 
L 293.168579 328.247781 
L 288.201244 329.481207 
L 283.201363 330.492725 
L 278.175596 331.283039 
L 273.130431 331.852712 
L 268.072225 332.20216 
L 263.007244 332.331641 
L 262.556884 332.33251 
L 262.556884 332.33251 
" style="fill:none;stroke:#808080;stroke-dasharray:1.11,0.48;stroke-dashoffset:0;stroke-width:0.3;"/>
   </g>
   <g id="line2d_17">
    <path clip-path="url(#pd639344cc2)" d="M 197.449659 245.80178 
L 197.561076 251.187289 
L 197.895897 256.572774 
L 198.449944 261.910871 
L 199.227979 267.248543 
L 200.224001 272.53794 
L 201.436887 277.778208 
L 202.866361 282.967971 
L 204.512971 288.105456 
L 206.359625 293.141256 
L 208.422156 298.119659 
L 210.680039 302.990341 
L 213.154273 307.796148 
L 215.820302 312.485865 
L 218.674073 317.054686 
L 221.711351 321.497339 
L 224.927641 325.808172 
L 228.318056 329.981152 
L 231.877234 334.009941 
L 235.599237 337.88796 
L 239.477486 341.608486 
L 243.504695 345.164744 
L 247.672781 348.549983 
L 251.972855 351.75762 
L 256.39515 354.781327 
L 260.929042 357.615183 
L 265.626282 360.288086 
L 270.417039 362.75724 
L 275.28805 365.018202 
L 280.225207 367.067428 
L 285.288462 368.928185 
L 290.393031 370.568258 
L 295.602923 372.007516 
L 300.826324 373.220542 
L 306.131262 374.223524 
L 311.419481 374.998994 
L 316.763097 375.559154 
L 322.150513 375.899469 
L 327.569641 376.016217 
L 332.911418 375.910482 
L 338.255527 375.584794 
L 343.588957 375.038803 
L 348.898386 374.273234 
L 354.170403 373.289919 
L 359.391619 372.091821 
L 364.548674 370.683077 
L 369.628513 369.068963 
L 374.722347 367.215667 
L 379.713761 365.161085 
L 384.590261 362.913791 
L 389.340129 360.48342 
L 394.054411 357.820252 
L 398.61871 354.98628 
L 403.023231 351.994121 
L 407.356958 348.781682 
L 411.510721 345.428866 
L 415.5709 341.865336 
L 419.433469 338.182489 
L 423.181309 334.301923 
L 426.71701 330.32594 
L 430.119164 326.168269 
L 433.37589 321.833552 
L 436.401682 317.439418 
L 439.266972 312.888381 
L 441.961237 308.187497 
L 444.413766 303.467443 
L 446.685041 298.62061 
L 448.766548 293.655833 
L 450.650265 288.582809 
L 452.32886 283.411764 
L 453.760765 278.289385 
L 454.98612 273.094939 
L 456.000212 267.839373 
L 456.799069 262.534174 
L 457.37954 257.191149 
L 457.739339 251.822192 
L 457.877027 246.439524 
L 457.792058 241.055456 
L 457.484769 235.682147 
L 456.956382 230.331848 
L 456.209001 225.016658 
L 455.245558 219.74829 
L 454.069829 214.538315 
L 452.686387 209.397931 
L 451.056084 204.205741 
L 449.219073 199.109162 
L 447.182539 194.118565 
L 444.954323 189.24371 
L 442.542815 184.493604 
L 439.888445 179.760067 
L 437.060756 175.174712 
L 434.070145 170.744704 
L 430.846939 166.371858 
L 427.475695 162.174894 
L 423.968277 158.158663 
L 420.246685 154.236093 
L 416.407629 150.510668 
L 412.368727 146.903166 
L 408.233432 143.506168 
L 403.915883 140.248596 
L 399.524734 137.211457 
L 394.971431 134.33191 
L 390.265717 131.622772 
L 385.521778 129.147173 
L 380.648803 126.85461 
L 375.658516 124.754914 
L 370.667321 122.893154 
L 365.583687 121.230868 
L 360.420341 119.774658 
L 355.190539 118.530017 
L 349.907701 117.50124 
L 344.585333 116.691448 
L 339.236973 116.102611 
L 333.876121 115.73558 
L 328.515825 115.590107 
L 323.169099 115.664929 
L 317.757664 115.9647 
L 312.388752 116.486397 
L 307.073943 117.225539 
L 301.740987 118.193801 
L 296.488723 119.374332 
L 291.326878 120.760147 
L 286.189069 122.369105 
L 281.091701 124.200733 
L 276.120227 126.22322 
L 271.214422 128.45939 
L 266.388498 130.905727 
L 261.716721 133.522016 
L 257.144945 136.335571 
L 252.684872 139.340908 
L 248.347265 142.532029 
L 244.141924 145.902592 
L 240.077933 149.445853 
L 236.16345 153.154965 
L 232.40581 157.02307 
L 228.81165 161.043334 
L 225.386946 165.209071 
L 222.137118 169.513794 
L 219.067038 173.951388 
L 216.181234 178.516037 
L 213.509417 183.15588 
L 211.025391 187.912126 
L 208.733281 192.780457 
L 206.637203 197.757107 
L 204.757916 202.791661 
L 203.079206 207.928245 
L 201.618331 213.117463 
L 200.37465 218.357358 
L 199.348295 223.646539 
L 198.540258 228.984116 
L 197.956662 234.322195 
L 197.592342 239.707653 
L 197.451587 245.093179 
L 197.449659 245.801793 
L 197.449659 245.801793 
" style="fill:none;stroke:#808080;stroke-dasharray:1.11,0.48;stroke-dashoffset:0;stroke-width:0.3;"/>
   </g>
   <g id="line2d_18">
    <path clip-path="url(#pd639344cc2)" d="M 262.556898 310.909019 
L 257.171389 310.797602 
L 251.785904 310.462781 
L 246.447807 309.908734 
L 241.110135 309.130699 
L 235.820737 308.134677 
L 230.580469 306.92179 
L 225.390707 305.492316 
L 220.253222 303.845706 
L 215.217422 301.999053 
L 210.239019 299.936522 
L 205.368337 297.678638 
L 200.562529 295.204405 
L 195.872813 292.538376 
L 191.303992 289.684604 
L 186.861339 286.647327 
L 182.550505 283.431037 
L 178.377525 280.040622 
L 174.348737 276.481443 
L 170.470718 272.759441 
L 166.750192 268.881192 
L 163.193934 264.853983 
L 159.808695 260.685897 
L 156.601058 256.385823 
L 153.577351 251.963528 
L 150.743495 247.429636 
L 148.070591 242.732396 
L 145.601438 237.941639 
L 143.340476 233.070628 
L 141.291249 228.133471 
L 139.430493 223.070216 
L 137.79042 217.965646 
L 136.351162 212.755755 
L 135.138136 207.532354 
L 134.135154 202.227415 
L 133.359684 196.939197 
L 132.799524 191.595581 
L 132.459209 186.208165 
L 132.342461 180.789037 
L 132.448196 175.44726 
L 132.773884 170.103151 
L 133.319875 164.769721 
L 134.085444 159.460292 
L 135.068759 154.188275 
L 136.266857 148.967059 
L 137.675601 143.810004 
L 139.289715 138.730164 
L 141.14301 133.636331 
L 143.197593 128.644917 
L 145.444886 123.768417 
L 147.875257 119.018549 
L 150.538426 114.304267 
L 153.372398 109.739968 
L 156.364557 105.335447 
L 159.576995 101.00172 
L 162.929812 96.847957 
L 166.493342 92.787778 
L 170.176189 88.925209 
L 174.056755 85.177369 
L 178.032738 81.641668 
L 182.190409 78.239514 
L 186.525125 74.982788 
L 190.91926 71.956995 
L 195.470297 69.091706 
L 200.171181 66.397441 
L 204.891235 63.944912 
L 209.738068 61.673637 
L 214.702844 59.59213 
L 219.775869 57.708413 
L 224.946914 56.029818 
L 230.069293 54.597913 
L 235.263739 53.372558 
L 240.519305 52.358465 
L 245.824504 51.559609 
L 251.167529 50.979137 
L 256.536485 50.619339 
L 261.919154 50.481651 
L 267.303222 50.56662 
L 272.67653 50.873909 
L 278.026829 51.402296 
L 283.342019 52.149677 
L 288.610388 53.11312 
L 293.820363 54.288849 
L 298.960747 55.672291 
L 304.152936 57.302593 
L 309.249516 59.139605 
L 314.240113 61.176139 
L 319.114968 63.404355 
L 323.865074 65.815863 
L 328.598611 68.470233 
L 333.183966 71.297921 
L 337.613974 74.288533 
L 341.98682 77.511739 
L 346.183784 80.882983 
L 350.200015 84.390401 
L 354.122585 88.111992 
L 357.84801 91.951049 
L 361.455512 95.989951 
L 364.85251 100.125246 
L 368.110082 104.442795 
L 371.147221 108.833944 
L 374.026767 113.387246 
L 376.735906 118.09296 
L 379.211505 122.8369 
L 381.504068 127.709875 
L 383.603763 132.700162 
L 385.465524 137.691357 
L 387.12781 142.774991 
L 388.58402 147.938337 
L 389.828661 153.168139 
L 390.857438 158.450976 
L 391.66723 163.773345 
L 392.256067 169.121704 
L 392.623098 174.482557 
L 392.768571 179.842853 
L 392.693749 185.189579 
L 392.393978 190.601014 
L 391.872281 195.969926 
L 391.133139 201.284735 
L 390.164876 206.617691 
L 388.984346 211.869954 
L 387.59853 217.031799 
L 385.989572 222.169608 
L 384.157945 227.266977 
L 382.135458 232.238451 
L 379.899288 237.144256 
L 377.452951 241.97018 
L 374.836662 246.641957 
L 372.023107 251.213733 
L 369.01777 255.673806 
L 365.826649 260.011413 
L 362.456086 264.216754 
L 358.912825 268.280745 
L 355.203713 272.195228 
L 351.335607 275.952868 
L 347.315344 279.547028 
L 343.149607 282.971732 
L 338.844884 286.22156 
L 334.40729 289.29164 
L 329.842641 292.177444 
L 325.202798 294.849261 
L 320.446552 297.333287 
L 315.57822 299.625397 
L 310.601571 301.721475 
L 305.567017 303.600762 
L 300.430433 305.279472 
L 295.241215 306.740347 
L 290.00132 307.984028 
L 284.712139 309.010382 
L 279.374562 309.81842 
L 274.036483 310.402016 
L 268.651025 310.766336 
L 263.265499 310.907091 
L 262.556885 310.909019 
L 262.556885 310.909019 
" style="fill:none;stroke:#808080;stroke-dasharray:1.11,0.48;stroke-dashoffset:0;stroke-width:0.3;"/>
   </g>
   <g id="line2d_19">
    <path clip-path="url(#pd639344cc2)" d="M 215.846428 245.80178 
L 215.957008 251.739645 
L 216.290077 257.689132 
L 216.844942 263.619974 
L 217.623443 269.542828 
L 218.621891 275.425352 
L 219.83203 281.232824 
L 221.263501 287.014398 
L 222.907857 292.731975 
L 224.76583 298.388551 
L 226.839044 303.9856 
L 229.109902 309.477406 
L 231.59634 314.906897 
L 234.276187 320.224104 
L 237.144039 325.422615 
L 240.223577 330.542953 
L 243.482469 335.529224 
L 246.911465 340.37153 
L 250.538759 345.10875 
L 254.318219 349.680779 
L 258.28074 354.125997 
L 262.419261 358.433022 
L 266.72482 362.590099 
L 271.186386 366.585338 
L 275.7907 370.406958 
L 280.522209 374.043611 
L 285.363021 377.484685 
L 290.367643 380.767709 
L 295.447719 383.835051 
L 300.66239 386.723987 
L 305.998724 389.42438 
L 311.441996 391.926917 
L 316.975736 394.223367 
L 322.581853 396.306846 
L 328.240704 398.172033 
L 333.931223 399.815386 
L 339.74757 401.262041 
L 345.559115 402.478674 
L 351.466899 403.486462 
L 357.329319 404.262609 
L 363.254474 404.823767 
L 369.228655 405.164685 
L 375.237362 405.28126 
L 381.119918 405.176 
L 386.998943 404.85351 
L 392.858774 404.314592 
L 398.838188 403.538541 
L 404.771889 402.539291 
L 410.643076 401.321589 
L 416.435214 399.891814 
L 422.132231 398.257944 
L 427.718507 396.429565 
L 433.345222 394.353028 
L 438.833837 392.090732 
L 444.170347 389.656421 
L 449.508777 386.977616 
L 454.669947 384.142802 
L 459.808064 381.066263 
L 464.745785 377.854045 
L 469.636247 374.406894 
L 474.305884 370.84849 
L 478.905634 367.065772 
L 483.422045 363.057657 
L 487.690581 358.973755 
L 491.85567 354.680292 
L 495.90408 350.179078 
L 499.685036 345.644273 
L 503.333151 340.922029 
L 505 338.636771 
M 505 152.966802 
L 501.458851 148.209802 
L 497.740352 143.584279 
L 493.895253 139.148025 
L 489.786878 134.750443 
L 485.568411 130.561582 
L 481.252963 126.582773 
L 476.69461 122.68355 
L 472.059472 119.009313 
L 467.197732 115.443505 
L 462.282034 112.114294 
L 457.159815 108.918899 
L 452.008163 105.967796 
L 446.673241 103.171948 
L 441.334279 100.623938 
L 435.837448 98.248183 
L 430.362045 96.11967 
L 424.755326 94.175783 
L 419.032132 92.428132 
L 413.208248 90.886842 
L 407.458499 89.592926 
L 401.63614 88.50753 
L 395.757348 87.63647 
L 389.838339 86.983966 
L 383.895543 86.552699 
L 377.945083 86.343797 
L 372.002681 86.356917 
L 366.083624 86.590323 
L 360.20262 87.040973 
L 354.246121 87.721578 
L 348.363314 88.618047 
L 342.566512 89.723181 
L 336.75295 91.057365 
L 331.056004 92.589893 
L 325.379773 94.345218 
L 319.745895 96.320783 
L 314.174798 98.512106 
L 308.685293 100.913083 
L 303.294736 103.516095 
L 298.018649 106.312377 
L 292.870877 109.292171 
L 287.863553 112.444959 
L 282.938704 115.808281 
L 278.181582 119.323777 
L 273.538909 123.029178 
L 269.027575 126.913726 
L 264.662133 130.966098 
L 260.454982 135.17459 
L 256.416342 139.527513 
L 252.513209 144.063167 
L 248.799812 148.720106 
L 245.28042 153.487776 
L 241.926195 158.404865 
L 238.747351 163.461012 
L 235.778389 168.599486 
L 232.994814 173.860388 
L 230.402526 179.236642 
L 228.025257 184.677134 
L 225.84396 190.224344 
L 223.877364 195.831363 
L 222.123569 201.498875 
L 220.581465 207.228972 
L 219.250911 213.025272 
L 218.132999 218.89279 
L 217.235862 224.796025 
L 216.562877 230.701973 
L 216.110907 236.620944 
L 215.879305 242.563708 
L 215.846428 245.801792 
L 215.846428 245.801792 
" style="fill:none;stroke:#808080;stroke-dasharray:1.11,0.48;stroke-dashoffset:0;stroke-width:0.3;"/>
   </g>
   <g id="line2d_20">
    <path clip-path="url(#pd639344cc2)" d="M 262.556897 292.51225 
L 256.619033 292.40167 
L 250.669546 292.068601 
L 244.738704 291.513736 
L 238.81585 290.735235 
L 232.933326 289.736787 
L 227.125854 288.526648 
L 221.344279 287.095177 
L 215.626703 285.450821 
L 209.970126 283.592847 
L 204.373078 281.519634 
L 198.881272 279.248776 
L 193.451781 276.762338 
L 188.134574 274.082491 
L 182.936062 271.214639 
L 177.815724 268.135101 
L 172.829454 264.876209 
L 167.987148 261.447213 
L 163.249927 257.819919 
L 158.677899 254.040459 
L 154.232681 250.077938 
L 149.925655 245.939416 
L 145.768578 241.633858 
L 141.773339 237.172292 
L 137.951719 232.567978 
L 134.315067 227.836468 
L 130.873993 222.995657 
L 127.590969 217.991035 
L 124.523627 212.910959 
L 121.634691 207.696288 
L 118.934298 202.359954 
L 116.431761 196.916681 
L 114.135311 191.382942 
L 112.051832 185.776824 
L 110.186645 180.117973 
L 108.543292 174.427455 
L 107.096637 168.611108 
L 105.880004 162.799563 
L 104.872216 156.891779 
L 104.096069 151.029359 
L 103.534911 145.104204 
L 103.193993 139.130023 
L 103.077418 133.121316 
L 103.182678 127.23876 
L 103.505167 121.359735 
L 104.044086 115.499904 
L 104.820137 109.52049 
L 105.819386 103.586789 
L 107.037088 97.715602 
L 108.466864 91.923464 
L 110.100734 86.226447 
L 111.929113 80.640171 
L 114.005649 75.013456 
L 116.267946 69.524841 
L 118.702257 64.18833 
L 121.381062 58.849901 
L 124.215876 53.688731 
L 127.292415 48.550614 
L 130.504633 43.612893 
L 133.951784 38.722431 
L 137.510188 34.052793 
L 141.292905 29.453044 
L 145.301021 24.936633 
L 149.384922 20.668097 
L 153.678385 16.503008 
L 158.1796 12.454598 
L 162.714405 8.673642 
L 167.436649 5.025527 
L 172.342028 1.522339 
L 176.133962 -1 
M 348.979821 -1 
L 353.69376 2.159601 
L 358.565575 5.690524 
L 363.2534 9.364148 
L 367.753105 13.168382 
L 372.217437 17.238645 
L 376.473526 21.423117 
L 380.519911 25.708774 
L 384.489127 30.240533 
L 388.233068 34.853279 
L 391.753016 39.533705 
L 395.160734 44.432914 
L 398.334149 49.377228 
L 401.371341 54.519957 
L 404.16772 59.683699 
L 406.807815 65.022595 
L 409.275662 70.52425 
L 411.493069 76.00885 
L 413.525072 81.629263 
L 415.35961 87.370519 
L 416.944458 93.055389 
L 418.326247 98.833071 
L 419.497183 104.687469 
L 420.451095 110.602177 
L 421.183441 116.560712 
L 421.691255 122.546347 
L 421.973168 128.542637 
L 422.029328 134.533523 
L 421.861318 140.503368 
L 421.472069 146.437109 
L 420.865736 152.32057 
L 420.02774 158.264522 
L 418.976458 164.123417 
L 417.719962 169.885594 
L 416.236341 175.651259 
L 414.525888 181.397351 
L 412.627564 187.000367 
L 410.514231 192.550279 
L 408.191186 198.027848 
L 405.665278 203.415278 
L 402.944683 208.696338 
L 400.038564 213.856635 
L 396.909698 218.957334 
L 393.614012 223.904868 
L 390.11412 228.7556 
L 386.469606 233.428716 
L 382.642696 237.976117 
L 378.644517 242.382528 
L 374.48663 246.634881 
L 370.180787 250.722205 
L 365.688627 254.677955 
L 361.071724 258.44622 
L 356.340921 262.022155 
L 351.457597 265.435074 
L 346.432375 268.674241 
L 341.322492 271.703911 
L 336.088046 274.54911 
L 330.736511 277.203656 
L 325.319584 279.642965 
L 319.795114 281.886694 
L 314.210616 283.915498 
L 308.522026 285.744626 
L 302.772568 287.358413 
L 297.001765 288.748072 
L 291.161218 289.926036 
L 285.286931 290.884124 
L 279.370591 291.623451 
L 273.44443 292.140174 
L 267.497704 292.435696 
L 262.556886 292.51225 
L 262.556886 292.51225 
" style="fill:none;stroke:#808080;stroke-dasharray:1.11,0.48;stroke-dashoffset:0;stroke-width:0.3;"/>
   </g>
   <g id="line2d_21">
    <path clip-path="url(#pd639344cc2)" d="M 232.34052 245.801781 
L 232.451348 252.871413 
L 232.784137 259.940675 
L 233.339674 267.007824 
L 234.113842 274.028697 
L 235.109126 281.032269 
L 236.323966 288.003321 
L 237.753869 294.919282 
L 239.401093 301.792896 
L 241.269066 308.632791 
L 243.346367 315.395941 
L 245.629974 322.077249 
L 248.135126 328.718011 
L 250.839206 335.256325 
L 253.757384 341.728603 
L 256.854676 348.060317 
L 260.176689 354.34385 
L 263.683186 360.499502 
L 267.395381 366.564231 
L 271.300739 372.514557 
L 275.38172 378.324666 
L 279.615199 383.966848 
L 284.032026 389.484747 
L 288.613157 394.85424 
L 293.405867 400.126587 
L 298.321423 405.203578 
L 303.409453 410.13896 
L 308.649865 414.911835 
L 314.018132 419.501497 
L 319.59036 423.969646 
L 325.243155 428.216868 
L 331.059447 432.307352 
L 337.02143 436.224914 
L 343.108063 439.954167 
L 349.295315 443.481055 
L 355.55588 446.793039 
L 361.859695 449.879694 
L 368.344527 452.806792 
L 374.821944 455.489684 
L 381.442812 457.99272 
L 388.194108 460.304685 
L 394.855024 462.355361 
L 401.597622 464.204793 
L 408.404131 465.846551 
L 415.255561 467.275708 
L 422.131582 468.488948 
L 429.010937 469.484774 
L 436.130098 470.28881 
L 443.224264 470.86327 
L 450.269501 471.211463 
L 457.241568 471.338956 
L 464.40661 471.245361 
L 471.464367 470.930299 
L 478.38993 470.405227 
L 485.470042 469.645777 
L 492.382348 468.684964 
L 499.425867 467.480031 
L 505 466.362389 
M 505 25.241183 
L 498.457884 23.944306 
L 491.431888 22.773544 
L 484.538048 21.844885 
L 477.477716 21.116908 
L 470.275939 20.604703 
L 463.247273 20.327624 
L 456.113078 20.270628 
L 448.898347 20.442571 
L 441.893492 20.830905 
L 434.841137 21.443376 
L 427.76499 22.283126 
L 420.688278 23.351115 
L 413.633329 24.646236 
L 406.621296 26.165472 
L 399.672487 27.903943 
L 392.805686 29.855177 
L 386.038134 32.011306 
L 379.385598 34.363212 
L 372.862224 36.900761 
L 366.312544 39.687546 
L 359.932425 42.641826 
L 353.579803 45.828828 
L 347.286541 49.239279 
L 341.215464 52.78071 
L 335.242674 56.519318 
L 329.39161 60.441282 
L 323.682759 64.531547 
L 318.030586 68.855589 
L 312.566669 73.314492 
L 307.212717 77.970873 
L 301.996276 82.804471 
L 296.940396 87.794449 
L 292.063943 92.919728 
L 287.31753 98.23368 
L 282.787023 103.638626 
L 278.425432 109.18559 
L 274.202001 114.918893 
L 270.187637 120.743691 
L 266.350751 126.703054 
L 262.707808 132.771761 
L 259.27041 138.927037 
L 256.017428 145.206099 
L 252.962234 151.585502 
L 250.113671 158.045537 
L 247.457373 164.620923 
L 245.02016 171.245032 
L 242.786672 177.9572 
L 240.761205 184.74884 
L 238.946342 191.616071 
L 237.352769 198.517715 
L 235.977137 205.463639 
L 234.81745 212.467885 
L 233.882905 219.470164 
L 233.168193 226.497423 
L 232.674024 233.541091 
L 232.40059 240.596724 
L 232.34052 245.801792 
L 232.34052 245.801792 
" style="fill:none;stroke:#808080;stroke-dasharray:1.11,0.48;stroke-dashoffset:0;stroke-width:0.3;"/>
   </g>
   <g id="line2d_22">
    <path clip-path="url(#pd639344cc2)" d="M 262.556897 276.018158 
L 255.487265 275.90733 
L 248.418003 275.574541 
L 241.350854 275.019004 
L 234.329981 274.244836 
L 227.326409 273.249552 
L 220.355357 272.034712 
L 213.439396 270.604809 
L 206.565782 268.957585 
L 199.725887 267.089612 
L 192.962737 265.012311 
L 186.281429 262.728703 
L 179.640667 260.223552 
L 173.102353 257.519472 
L 166.630075 254.601294 
L 160.29836 251.504001 
L 154.014828 248.181988 
L 147.859176 244.675492 
L 141.794447 240.963297 
L 135.844121 237.057939 
L 130.034012 232.976957 
L 124.39183 228.743479 
L 118.873931 224.326651 
L 113.504438 219.745521 
L 108.232091 214.952811 
L 103.1551 210.037255 
L 98.219718 204.949225 
L 93.446843 199.708813 
L 88.857181 194.340546 
L 84.389032 188.768318 
L 80.14181 183.115523 
L 76.051326 177.29923 
L 72.133763 171.337248 
L 68.404511 165.250615 
L 64.877623 159.063363 
L 61.565639 152.802798 
L 58.478984 146.498983 
L 55.551886 140.014151 
L 52.868994 133.536734 
L 50.365957 126.915866 
L 48.053993 120.16457 
L 46.003317 113.503653 
L 44.153885 106.761056 
L 42.512127 99.954547 
L 41.08297 93.103117 
L 39.86973 86.227096 
L 38.873903 79.347741 
L 38.069868 72.22858 
L 37.495408 65.134414 
L 37.147215 58.089177 
L 37.019722 51.11711 
L 37.113317 43.952068 
L 37.428379 36.89431 
L 37.953451 29.968748 
L 38.712901 22.888636 
L 39.673713 15.97633 
L 40.878647 8.932811 
L 42.270399 2.093295 
L 42.972754 -1 
M 482.141029 -1 
L 483.602675 5.689663 
L 484.923543 12.790663 
L 485.993452 19.763251 
L 486.859884 26.90917 
L 487.484887 33.902471 
L 487.897 41.032557 
L 488.081194 47.988152 
L 488.048753 55.045281 
L 487.791315 62.179446 
L 487.302875 69.365624 
L 486.60912 76.326163 
L 485.693061 83.307981 
L 484.554012 90.288367 
L 483.193279 97.245517 
L 481.613999 104.158803 
L 479.821109 111.008433 
L 477.821065 117.776123 
L 475.621663 124.445105 
L 473.161931 131.182864 
L 470.51599 137.775185 
L 467.69596 144.210464 
L 464.636958 150.635304 
L 461.426104 156.868326 
L 457.997299 163.04326 
L 454.362044 169.131696 
L 450.533537 175.108342 
L 446.52644 180.950874 
L 442.35644 186.64008 
L 437.95879 192.260182 
L 433.432596 197.683738 
L 428.715833 202.987882 
L 423.829007 208.146589 
L 418.793024 213.138294 
L 413.628866 217.945546 
L 408.283604 222.617086 
L 402.782448 227.127234 
L 397.150108 231.455465 
L 391.410087 235.586206 
L 385.51917 239.550707 
L 379.50391 243.329293 
L 373.388625 246.90755 
L 367.195175 250.27561 
L 360.886084 253.454941 
L 354.483486 256.433778 
L 347.953787 259.225845 
L 341.36766 261.800422 
L 334.687283 264.172923 
L 327.924185 266.337768 
L 321.129897 268.279592 
L 314.25843 270.012254 
L 307.349065 271.525518 
L 300.390458 272.822262 
L 293.406959 273.898293 
L 286.376336 274.756826 
L 279.311176 275.394994 
L 272.25675 275.809477 
L 265.177471 276.002933 
L 262.556886 276.018158 
L 262.556886 276.018158 
" style="fill:none;stroke:#808080;stroke-dasharray:1.11,0.48;stroke-dashoffset:0;stroke-width:0.3;"/>
   </g>
   <g id="line2d_23">
    <path clip-path="url(#pd639344cc2)" d="M 247.710567 245.801781 
L 247.821399 255.628728 
L 248.153589 265.445072 
L 248.707922 275.265536 
L 249.485072 285.085077 
L 250.482213 294.868727 
L 251.700232 304.629717 
L 253.136862 314.351734 
L 254.791879 324.036028 
L 256.672144 333.716053 
L 258.772595 343.358015 
L 261.079249 352.904126 
L 263.60514 362.412625 
L 266.35205 371.884739 
L 269.295916 381.241105 
L 272.460368 390.559258 
L 275.817498 399.758672 
L 279.407401 408.94687 
L 283.205323 418.053594 
L 287.173672 426.995866 
L 291.381062 435.92777 
L 295.803931 444.789654 
L 300.407883 453.513309 
L 305.231293 462.170979 
L 310.242681 470.703945 
L 315.400147 479.047677 
L 320.765509 487.30529 
L 326.307818 495.427655 
L 331.987424 503.362054 
L 333.19377 505 
M 324.350274 -1 
L 318.955687 7.038308 
L 313.65662 15.329852 
L 308.573989 23.691967 
L 303.64635 32.226715 
L 298.912807 40.871099 
L 294.402153 49.568473 
L 290.076011 58.390652 
L 285.966258 67.27174 
L 282.049031 76.261743 
L 278.313769 85.39154 
L 274.794244 94.58168 
L 271.481946 103.852531 
L 268.37465 113.212458 
L 265.495939 122.586241 
L 262.820524 132.053422 
L 260.353216 141.604271 
L 258.111166 151.170733 
L 256.079464 160.815194 
L 254.26927 170.486999 
L 252.676591 180.206106 
L 251.304083 189.958073 
L 250.150944 199.751601 
L 249.222224 209.538972 
L 248.514504 219.34588 
L 248.027572 229.184278 
L 247.763383 239.017821 
L 247.710567 245.801791 
L 247.710567 245.801791 
" style="fill:none;stroke:#808080;stroke-dasharray:1.11,0.48;stroke-dashoffset:0;stroke-width:0.3;"/>
   </g>
   <g id="line2d_24">
    <path clip-path="url(#pd639344cc2)" d="M 262.556897 260.648111 
L 252.72995 260.537278 
L 242.913606 260.205089 
L 233.093142 259.650756 
L 223.273601 258.873606 
L 213.489951 257.876465 
L 203.728961 256.658446 
L 194.006943 255.221816 
L 184.32265 253.566799 
L 174.642625 251.686533 
L 165.000663 249.586083 
L 155.454552 247.279429 
L 145.946053 244.753538 
L 136.473939 242.006628 
L 127.117573 239.062762 
L 117.79942 235.89831 
L 108.600006 232.54118 
L 99.411808 228.951277 
L 90.305084 225.153355 
L 81.362812 221.185005 
L 72.430908 216.977616 
L 63.569023 212.554747 
L 54.845369 207.950794 
L 46.187698 203.127385 
L 37.654733 198.115997 
L 29.311001 192.958531 
L 21.053387 187.593168 
L 12.931023 182.05086 
L 4.996624 176.371254 
L -1 171.8967 
M 505 186.965675 
L 496.792778 192.32921 
L 488.400606 197.546924 
L 479.968103 202.529312 
L 471.395185 207.337581 
L 462.74118 211.938207 
L 453.934116 216.36833 
L 445.043348 220.591475 
L 436.019344 224.630118 
L 426.935911 228.4508 
L 417.759731 232.068385 
L 408.562902 235.456384 
L 399.237961 238.654581 
L 389.867539 241.633509 
L 380.446024 244.396368 
L 370.972854 246.944126 
L 361.38841 249.291085 
L 351.763229 251.418312 
L 342.092569 253.327213 
L 332.41349 255.011612 
L 322.695187 256.477863 
L 312.939548 257.725321 
L 303.166075 258.751531 
L 293.364636 259.557575 
L 283.536344 260.142733 
L 273.691742 260.505808 
L 263.854556 260.646179 
L 262.556887 260.648111 
L 262.556887 260.648111 
" style="fill:none;stroke:#808080;stroke-dasharray:1.11,0.48;stroke-dashoffset:0;stroke-width:0.3;"/>
   </g>
   <g id="patch_5">
    <path d="M 37.018823 471.339855 
L 37.018823 20.263717 
" style="fill:none;stroke:#262626;stroke-linecap:square;stroke-linejoin:miter;stroke-width:0.8;"/>
   </g>
   <g id="patch_6">
    <path d="M 488.094961 471.339855 
L 488.094961 20.263717 
" style="fill:none;stroke:#262626;stroke-linecap:square;stroke-linejoin:miter;stroke-width:0.8;"/>
   </g>
   <g id="patch_7">
    <path d="M 37.018823 471.339855 
L 488.094961 471.339855 
" style="fill:none;stroke:#262626;stroke-linecap:square;stroke-linejoin:miter;stroke-width:0.8;"/>
   </g>
   <g id="patch_8">
    <path d="M 37.018823 20.263717 
L 488.094961 20.263717 
" style="fill:none;stroke:#262626;stroke-linecap:square;stroke-linejoin:miter;stroke-width:0.8;"/>
   </g>
  </g>
 </g>
 <defs>
  <clipPath id="pd639344cc2">
   <rect height="451.076138" width="451.076138" x="37.018823" y="20.263717"/>
  </clipPath>
 </defs>
</svg>
