<?xml version="1.0" encoding="utf-8" standalone="no"?>
<!DOCTYPE svg PUBLIC "-//W3C//DTD SVG 1.1//EN"
  "http://www.w3.org/Graphics/SVG/1.1/DTD/svg11.dtd">
<!-- Created with matplotlib (https://matplotlib.org/) -->
<svg height="504pt" version="1.1" viewBox="0 0 504 504" width="504pt" xmlns="http://www.w3.org/2000/svg" xmlns:xlink="http://www.w3.org/1999/xlink">
 <defs>
  <style type="text/css">
*{stroke-linecap:butt;stroke-linejoin:round;}
  </style>
 </defs>
 <g id="figure_1">
  <g id="patch_1">
   <path d="M 0 504 
L 504 504 
L 504 0 
L 0 0 
z
" style="fill:#ffffff;"/>
  </g>
  <g id="axes_1">
   <g id="patch_2">
    <path d="M 42.000158 467.603854 
L 485.604293 467.603854 
L 485.604293 23.999719 
L 42.000158 23.999719 
z
" style="fill:#1e0c45;"/>
   </g>
   <g id="matplotlib.axis_1">
    <g id="xtick_1">
     <g id="text_1">
      <!-- $-10.0$ -->
      <defs>
       <path d="M 65.90625 23 
C 67.59375 23 69.40625 23 69.40625 25 
C 69.40625 27 67.59375 27 65.90625 27 
L 11.796875 27 
C 10.09375 27 8.296875 27 8.296875 25 
C 8.296875 23 10.09375 23 11.796875 23 
z
" id="CMSY10-0"/>
       <path d="M 26.59375 63.40625 
C 26.59375 65.5 26.5 65.5 25.09375 65.5 
C 21.203125 61.1875 15.296875 59.796875 9.703125 59.796875 
C 9.40625 59.796875 8.90625 59.796875 8.796875 59.5 
C 8.703125 59.296875 8.703125 59.09375 8.703125 57 
C 11.796875 57 17 57.59375 21 59.984375 
L 21 7.203125 
C 21 3.6875 20.796875 2.5 12.203125 2.5 
L 9.203125 2.5 
L 9.203125 0 
C 14 0 19 0 23.796875 0 
C 28.59375 0 33.59375 0 38.40625 0 
L 38.40625 2.5 
L 35.40625 2.5 
C 26.796875 2.5 26.59375 3.59375 26.59375 7.15625 
z
" id="CMR17-49"/>
       <path d="M 42 31.640625 
C 42 37.75 41.90625 48.125 37.703125 56.109375 
C 34 63.109375 28.09375 65.59375 22.90625 65.59375 
C 18.09375 65.59375 12 63.40625 8.203125 56.203125 
C 4.203125 48.71875 3.796875 39.4375 3.796875 31.640625 
C 3.796875 25.953125 3.90625 17.28125 7 9.671875 
C 11.296875 -0.609375 19 -2 22.90625 -2 
C 27.5 -2 34.5 -0.109375 38.59375 9.375 
C 41.59375 16.28125 42 24.359375 42 31.640625 
z
M 22.90625 -0.40625 
C 16.5 -0.40625 12.703125 5.078125 11.296875 12.6875 
C 10.203125 18.5625 10.203125 27.15625 10.203125 32.75 
C 10.203125 40.4375 10.203125 46.828125 11.5 52.921875 
C 13.40625 61.390625 19 64 22.90625 64 
C 27 64 32.296875 61.296875 34.203125 53.125 
C 35.5 47.4375 35.59375 40.734375 35.59375 32.75 
C 35.59375 26.25 35.59375 18.265625 34.40625 12.375 
C 32.296875 1.484375 26.40625 -0.40625 22.90625 -0.40625 
z
" id="CMR17-48"/>
       <path d="M 18.40625 4.796875 
C 18.40625 7.6875 16 9.671875 13.59375 9.671875 
C 10.703125 9.671875 8.703125 7.28125 8.703125 4.890625 
C 8.703125 2 11.09375 0 13.5 0 
C 16.40625 0 18.40625 2.390625 18.40625 4.796875 
z
" id="CMMI12-58"/>
      </defs>
      <g style="fill:#262626;" transform="translate(29.270079 481.522352)scale(0.1 -0.1)">
       <use transform="scale(0.996264)" xlink:href="#CMSY10-0"/>
       <use transform="translate(77.487468 0)scale(0.996264)" xlink:href="#CMR17-49"/>
       <use transform="translate(123.177945 0)scale(0.996264)" xlink:href="#CMR17-48"/>
       <use transform="translate(168.868422 0)scale(0.996264)" xlink:href="#CMMI12-58"/>
       <use transform="translate(195.965599 0)scale(0.996264)" xlink:href="#CMR17-48"/>
      </g>
     </g>
    </g>
    <g id="xtick_2">
     <g id="text_2">
      <!-- $-7.5$ -->
      <defs>
       <path d="M 45.09375 61.578125 
L 45.09375 63.765625 
L 21.59375 63.765625 
C 9.90625 63.765625 9.703125 65.078125 9.296875 67 
L 7.5 67 
L 4.59375 48.34375 
L 6.40625 48.34375 
C 6.703125 50.234375 7.40625 55.3125 8.59375 57.203125 
C 9.203125 58 16.59375 58 18.296875 58 
L 40.296875 58 
L 29.203125 41.578125 
C 21.796875 30.53125 16.703125 15.609375 16.703125 2.578125 
C 16.703125 1.390625 16.703125 -2 20.296875 -2 
C 23.90625 -2 23.90625 1.390625 23.90625 2.671875 
L 23.90625 7.265625 
C 23.90625 23.5625 26.703125 34.3125 31.296875 41.1875 
z
" id="CMR17-55"/>
       <path d="M 11.40625 57.6875 
C 12.40625 57.28125 16.5 56 20.703125 56 
C 30 56 35.09375 61.109375 38 64.0625 
C 38 64.953125 38 65.5 37.40625 65.5 
C 37.296875 65.5 37.09375 65.5 36.296875 65.046875 
C 32.796875 63.40625 28.703125 62.078125 23.703125 62.078125 
C 20.703125 62.078125 16.203125 62.484375 11.296875 64.671875 
C 10.203125 65.171875 10 65.171875 9.90625 65.171875 
C 9.40625 65.171875 9.296875 65.0625 9.296875 63.078125 
L 9.296875 34.421875 
C 9.296875 32.640625 9.296875 32.140625 10.296875 32.140625 
C 10.796875 32.140625 11 32.34375 11.5 33.03125 
C 14.703125 37.515625 19.09375 39.40625 24.09375 39.40625 
C 27.59375 39.40625 35.09375 37.21875 35.09375 20.140625 
C 35.09375 16.953125 35.09375 11.171875 32.09375 6.578125 
C 29.59375 2.484375 25.703125 0.390625 21.40625 0.390625 
C 14.796875 0.390625 8.09375 5 6.296875 12.71875 
C 6.703125 12.609375 7.5 12.421875 7.90625 12.421875 
C 9.203125 12.421875 11.703125 13.125 11.703125 16.21875 
C 11.703125 18.90625 9.796875 20 7.90625 20 
C 5.59375 20 4.09375 18.59375 4.09375 15.796875 
C 4.09375 7.09375 11 -2 21.59375 -2 
C 31.90625 -2 41.703125 6.875 41.703125 19.75 
C 41.703125 31.71875 33.90625 41 24.203125 41 
C 19.09375 41 14.796875 39.109375 11.40625 35.53125 
z
" id="CMR17-53"/>
      </defs>
      <g style="fill:#262626;" transform="translate(87.211263 481.522352)scale(0.1 -0.1)">
       <use transform="scale(0.996264)" xlink:href="#CMSY10-0"/>
       <use transform="translate(77.487468 0)scale(0.996264)" xlink:href="#CMR17-55"/>
       <use transform="translate(123.177945 0)scale(0.996264)" xlink:href="#CMMI12-58"/>
       <use transform="translate(150.275122 0)scale(0.996264)" xlink:href="#CMR17-53"/>
      </g>
     </g>
    </g>
    <g id="xtick_3">
     <g id="text_3">
      <!-- $-5.0$ -->
      <g style="fill:#262626;" transform="translate(142.66178 481.522352)scale(0.1 -0.1)">
       <use transform="scale(0.996264)" xlink:href="#CMSY10-0"/>
       <use transform="translate(77.487468 0)scale(0.996264)" xlink:href="#CMR17-53"/>
       <use transform="translate(123.177945 0)scale(0.996264)" xlink:href="#CMMI12-58"/>
       <use transform="translate(150.275122 0)scale(0.996264)" xlink:href="#CMR17-48"/>
      </g>
     </g>
    </g>
    <g id="xtick_4">
     <g id="text_4">
      <!-- $-2.5$ -->
      <defs>
       <path d="M 41.703125 15.453125 
L 39.90625 15.453125 
C 38.90625 8.375 38.09375 7.171875 37.703125 6.5625 
C 37.203125 5.765625 30 5.765625 28.59375 5.765625 
L 9.40625 5.765625 
C 13 9.671875 20 16.75 28.5 24.953125 
C 34.59375 30.734375 41.703125 37.53125 41.703125 47.421875 
C 41.703125 59.21875 32.296875 66 21.796875 66 
C 10.796875 66 4.09375 56.3125 4.09375 47.34375 
C 4.09375 43.4375 7 42.9375 8.203125 42.9375 
C 9.203125 42.9375 12.203125 43.546875 12.203125 47.03125 
C 12.203125 50.109375 9.59375 51 8.203125 51 
C 7.59375 51 7 50.90625 6.59375 50.703125 
C 8.5 59.21875 14.296875 63.40625 20.40625 63.40625 
C 29.09375 63.40625 34.796875 56.515625 34.796875 47.421875 
C 34.796875 38.734375 29.703125 31.25 24 24.75 
L 4.09375 2.28125 
L 4.09375 0 
L 39.296875 0 
z
" id="CMR17-50"/>
      </defs>
      <g style="fill:#262626;" transform="translate(198.112297 481.522352)scale(0.1 -0.1)">
       <use transform="scale(0.996264)" xlink:href="#CMSY10-0"/>
       <use transform="translate(77.487468 0)scale(0.996264)" xlink:href="#CMR17-50"/>
       <use transform="translate(123.177945 0)scale(0.996264)" xlink:href="#CMMI12-58"/>
       <use transform="translate(150.275122 0)scale(0.996264)" xlink:href="#CMR17-53"/>
      </g>
     </g>
    </g>
    <g id="xtick_5">
     <g id="text_5">
      <!-- $0.0$ -->
      <g style="fill:#262626;" transform="translate(257.437186 481.522352)scale(0.1 -0.1)">
       <use transform="scale(0.996264)" xlink:href="#CMR17-48"/>
       <use transform="translate(45.690477 0)scale(0.996264)" xlink:href="#CMMI12-58"/>
       <use transform="translate(72.787654 0)scale(0.996264)" xlink:href="#CMR17-48"/>
      </g>
     </g>
    </g>
    <g id="xtick_6">
     <g id="text_6">
      <!-- $2.5$ -->
      <g style="fill:#262626;" transform="translate(312.887703 481.522352)scale(0.1 -0.1)">
       <use transform="scale(0.996264)" xlink:href="#CMR17-50"/>
       <use transform="translate(45.690477 0)scale(0.996264)" xlink:href="#CMMI12-58"/>
       <use transform="translate(72.787654 0)scale(0.996264)" xlink:href="#CMR17-53"/>
      </g>
     </g>
    </g>
    <g id="xtick_7">
     <g id="text_7">
      <!-- $5.0$ -->
      <g style="fill:#262626;" transform="translate(368.33822 481.522352)scale(0.1 -0.1)">
       <use transform="scale(0.996264)" xlink:href="#CMR17-53"/>
       <use transform="translate(45.690477 0)scale(0.996264)" xlink:href="#CMMI12-58"/>
       <use transform="translate(72.787654 0)scale(0.996264)" xlink:href="#CMR17-48"/>
      </g>
     </g>
    </g>
    <g id="xtick_8">
     <g id="text_8">
      <!-- $7.5$ -->
      <g style="fill:#262626;" transform="translate(423.788737 481.522352)scale(0.1 -0.1)">
       <use transform="scale(0.996264)" xlink:href="#CMR17-55"/>
       <use transform="translate(45.690477 0)scale(0.996264)" xlink:href="#CMMI12-58"/>
       <use transform="translate(72.787654 0)scale(0.996264)" xlink:href="#CMR17-53"/>
      </g>
     </g>
    </g>
    <g id="xtick_9">
     <g id="text_9">
      <!-- $10.0$ -->
      <g style="fill:#262626;" transform="translate(476.748586 481.522352)scale(0.1 -0.1)">
       <use transform="scale(0.996264)" xlink:href="#CMR17-49"/>
       <use transform="translate(45.690477 0)scale(0.996264)" xlink:href="#CMR17-48"/>
       <use transform="translate(91.380954 0)scale(0.996264)" xlink:href="#CMMI12-58"/>
       <use transform="translate(118.478131 0)scale(0.996264)" xlink:href="#CMR17-48"/>
      </g>
     </g>
    </g>
   </g>
   <g id="matplotlib.axis_2">
    <g id="ytick_1">
     <g id="text_10">
      <!-- $-10.0$ -->
      <g style="fill:#262626;" transform="translate(9.54 471.063103)scale(0.1 -0.1)">
       <use transform="scale(0.996264)" xlink:href="#CMSY10-0"/>
       <use transform="translate(77.487468 0)scale(0.996264)" xlink:href="#CMR17-49"/>
       <use transform="translate(123.177945 0)scale(0.996264)" xlink:href="#CMR17-48"/>
       <use transform="translate(168.868422 0)scale(0.996264)" xlink:href="#CMMI12-58"/>
       <use transform="translate(195.965599 0)scale(0.996264)" xlink:href="#CMR17-48"/>
      </g>
     </g>
    </g>
    <g id="ytick_2">
     <g id="text_11">
      <!-- $-7.5$ -->
      <g style="fill:#262626;" transform="translate(14.521335 415.612586)scale(0.1 -0.1)">
       <use transform="scale(0.996264)" xlink:href="#CMSY10-0"/>
       <use transform="translate(77.487468 0)scale(0.996264)" xlink:href="#CMR17-55"/>
       <use transform="translate(123.177945 0)scale(0.996264)" xlink:href="#CMMI12-58"/>
       <use transform="translate(150.275122 0)scale(0.996264)" xlink:href="#CMR17-53"/>
      </g>
     </g>
    </g>
    <g id="ytick_3">
     <g id="text_12">
      <!-- $-5.0$ -->
      <g style="fill:#262626;" transform="translate(14.521335 360.162069)scale(0.1 -0.1)">
       <use transform="scale(0.996264)" xlink:href="#CMSY10-0"/>
       <use transform="translate(77.487468 0)scale(0.996264)" xlink:href="#CMR17-53"/>
       <use transform="translate(123.177945 0)scale(0.996264)" xlink:href="#CMMI12-58"/>
       <use transform="translate(150.275122 0)scale(0.996264)" xlink:href="#CMR17-48"/>
      </g>
     </g>
    </g>
    <g id="ytick_4">
     <g id="text_13">
      <!-- $-2.5$ -->
      <g style="fill:#262626;" transform="translate(14.521335 304.711552)scale(0.1 -0.1)">
       <use transform="scale(0.996264)" xlink:href="#CMSY10-0"/>
       <use transform="translate(77.487468 0)scale(0.996264)" xlink:href="#CMR17-50"/>
       <use transform="translate(123.177945 0)scale(0.996264)" xlink:href="#CMMI12-58"/>
       <use transform="translate(150.275122 0)scale(0.996264)" xlink:href="#CMR17-53"/>
      </g>
     </g>
    </g>
    <g id="ytick_5">
     <g id="text_14">
      <!-- $0.0$ -->
      <g style="fill:#262626;" transform="translate(22.270079 249.261035)scale(0.1 -0.1)">
       <use transform="scale(0.996264)" xlink:href="#CMR17-48"/>
       <use transform="translate(45.690477 0)scale(0.996264)" xlink:href="#CMMI12-58"/>
       <use transform="translate(72.787654 0)scale(0.996264)" xlink:href="#CMR17-48"/>
      </g>
     </g>
    </g>
    <g id="ytick_6">
     <g id="text_15">
      <!-- $2.5$ -->
      <g style="fill:#262626;" transform="translate(22.270079 193.810519)scale(0.1 -0.1)">
       <use transform="scale(0.996264)" xlink:href="#CMR17-50"/>
       <use transform="translate(45.690477 0)scale(0.996264)" xlink:href="#CMMI12-58"/>
       <use transform="translate(72.787654 0)scale(0.996264)" xlink:href="#CMR17-53"/>
      </g>
     </g>
    </g>
    <g id="ytick_7">
     <g id="text_16">
      <!-- $5.0$ -->
      <g style="fill:#262626;" transform="translate(22.270079 138.360002)scale(0.1 -0.1)">
       <use transform="scale(0.996264)" xlink:href="#CMR17-53"/>
       <use transform="translate(45.690477 0)scale(0.996264)" xlink:href="#CMMI12-58"/>
       <use transform="translate(72.787654 0)scale(0.996264)" xlink:href="#CMR17-48"/>
      </g>
     </g>
    </g>
    <g id="ytick_8">
     <g id="text_17">
      <!-- $7.5$ -->
      <g style="fill:#262626;" transform="translate(22.270079 82.909485)scale(0.1 -0.1)">
       <use transform="scale(0.996264)" xlink:href="#CMR17-55"/>
       <use transform="translate(45.690477 0)scale(0.996264)" xlink:href="#CMMI12-58"/>
       <use transform="translate(72.787654 0)scale(0.996264)" xlink:href="#CMR17-53"/>
      </g>
     </g>
    </g>
    <g id="ytick_9">
     <g id="text_18">
      <!-- $10.0$ -->
      <g style="fill:#262626;" transform="translate(17.288744 27.458968)scale(0.1 -0.1)">
       <use transform="scale(0.996264)" xlink:href="#CMR17-49"/>
       <use transform="translate(45.690477 0)scale(0.996264)" xlink:href="#CMR17-48"/>
       <use transform="translate(91.380954 0)scale(0.996264)" xlink:href="#CMMI12-58"/>
       <use transform="translate(118.478131 0)scale(0.996264)" xlink:href="#CMR17-48"/>
      </g>
     </g>
    </g>
   </g>
   <g id="LineCollection_1">
    <path clip-path="url(#pfaa243fd81)" d="M 42.000158 467.603854 
L 485.604293 467.603854 
" style="fill:none;stroke:#808080;stroke-dasharray:1.11,0.48;stroke-dashoffset:0;stroke-width:0.3;"/>
    <path clip-path="url(#pfaa243fd81)" d="M 42.000158 445.423647 
L 485.604293 445.423647 
" style="fill:none;stroke:#808080;stroke-dasharray:1.11,0.48;stroke-dashoffset:0;stroke-width:0.3;"/>
    <path clip-path="url(#pfaa243fd81)" d="M 42.000158 423.24344 
L 485.604293 423.24344 
" style="fill:none;stroke:#808080;stroke-dasharray:1.11,0.48;stroke-dashoffset:0;stroke-width:0.3;"/>
    <path clip-path="url(#pfaa243fd81)" d="M 42.000158 401.063233 
L 485.604293 401.063233 
" style="fill:none;stroke:#808080;stroke-dasharray:1.11,0.48;stroke-dashoffset:0;stroke-width:0.3;"/>
    <path clip-path="url(#pfaa243fd81)" d="M 42.000158 378.883027 
L 485.604293 378.883027 
" style="fill:none;stroke:#808080;stroke-dasharray:1.11,0.48;stroke-dashoffset:0;stroke-width:0.3;"/>
    <path clip-path="url(#pfaa243fd81)" d="M 42.000158 356.70282 
L 485.604293 356.70282 
" style="fill:none;stroke:#808080;stroke-dasharray:1.11,0.48;stroke-dashoffset:0;stroke-width:0.3;"/>
    <path clip-path="url(#pfaa243fd81)" d="M 42.000158 334.522613 
L 485.604293 334.522613 
" style="fill:none;stroke:#808080;stroke-dasharray:1.11,0.48;stroke-dashoffset:0;stroke-width:0.3;"/>
    <path clip-path="url(#pfaa243fd81)" d="M 42.000158 312.342406 
L 485.604293 312.342406 
" style="fill:none;stroke:#808080;stroke-dasharray:1.11,0.48;stroke-dashoffset:0;stroke-width:0.3;"/>
    <path clip-path="url(#pfaa243fd81)" d="M 42.000158 290.1622 
L 485.604293 290.1622 
" style="fill:none;stroke:#808080;stroke-dasharray:1.11,0.48;stroke-dashoffset:0;stroke-width:0.3;"/>
    <path clip-path="url(#pfaa243fd81)" d="M 42.000158 267.981993 
L 485.604293 267.981993 
" style="fill:none;stroke:#808080;stroke-dasharray:1.11,0.48;stroke-dashoffset:0;stroke-width:0.3;"/>
    <path clip-path="url(#pfaa243fd81)" d="M 42.000158 223.621579 
L 485.604293 223.621579 
" style="fill:none;stroke:#808080;stroke-dasharray:1.11,0.48;stroke-dashoffset:0;stroke-width:0.3;"/>
    <path clip-path="url(#pfaa243fd81)" d="M 42.000158 201.441373 
L 485.604293 201.441373 
" style="fill:none;stroke:#808080;stroke-dasharray:1.11,0.48;stroke-dashoffset:0;stroke-width:0.3;"/>
    <path clip-path="url(#pfaa243fd81)" d="M 42.000158 179.261166 
L 485.604293 179.261166 
" style="fill:none;stroke:#808080;stroke-dasharray:1.11,0.48;stroke-dashoffset:0;stroke-width:0.3;"/>
    <path clip-path="url(#pfaa243fd81)" d="M 42.000158 157.080959 
L 485.604293 157.080959 
" style="fill:none;stroke:#808080;stroke-dasharray:1.11,0.48;stroke-dashoffset:0;stroke-width:0.3;"/>
    <path clip-path="url(#pfaa243fd81)" d="M 42.000158 134.900753 
L 485.604293 134.900753 
" style="fill:none;stroke:#808080;stroke-dasharray:1.11,0.48;stroke-dashoffset:0;stroke-width:0.3;"/>
    <path clip-path="url(#pfaa243fd81)" d="M 42.000158 112.720546 
L 485.604293 112.720546 
" style="fill:none;stroke:#808080;stroke-dasharray:1.11,0.48;stroke-dashoffset:0;stroke-width:0.3;"/>
    <path clip-path="url(#pfaa243fd81)" d="M 42.000158 90.540339 
L 485.604293 90.540339 
" style="fill:none;stroke:#808080;stroke-dasharray:1.11,0.48;stroke-dashoffset:0;stroke-width:0.3;"/>
    <path clip-path="url(#pfaa243fd81)" d="M 42.000158 68.360132 
L 485.604293 68.360132 
" style="fill:none;stroke:#808080;stroke-dasharray:1.11,0.48;stroke-dashoffset:0;stroke-width:0.3;"/>
    <path clip-path="url(#pfaa243fd81)" d="M 42.000158 46.179926 
L 485.604293 46.179926 
" style="fill:none;stroke:#808080;stroke-dasharray:1.11,0.48;stroke-dashoffset:0;stroke-width:0.3;"/>
    <path clip-path="url(#pfaa243fd81)" d="M 42.000158 23.999719 
L 485.604293 23.999719 
" style="fill:none;stroke:#808080;stroke-dasharray:1.11,0.48;stroke-dashoffset:0;stroke-width:0.3;"/>
   </g>
   <g id="LineCollection_2">
    <path clip-path="url(#pfaa243fd81)" d="M 42.000158 467.603854 
L 42.000158 23.999719 
" style="fill:none;stroke:#808080;stroke-dasharray:1.11,0.48;stroke-dashoffset:0;stroke-width:0.3;"/>
    <path clip-path="url(#pfaa243fd81)" d="M 64.180365 467.603854 
L 64.180365 23.999719 
" style="fill:none;stroke:#808080;stroke-dasharray:1.11,0.48;stroke-dashoffset:0;stroke-width:0.3;"/>
    <path clip-path="url(#pfaa243fd81)" d="M 86.360571 467.603854 
L 86.360571 23.999719 
" style="fill:none;stroke:#808080;stroke-dasharray:1.11,0.48;stroke-dashoffset:0;stroke-width:0.3;"/>
    <path clip-path="url(#pfaa243fd81)" d="M 108.540778 467.603854 
L 108.540778 23.999719 
" style="fill:none;stroke:#808080;stroke-dasharray:1.11,0.48;stroke-dashoffset:0;stroke-width:0.3;"/>
    <path clip-path="url(#pfaa243fd81)" d="M 130.720985 467.603854 
L 130.720985 23.999719 
" style="fill:none;stroke:#808080;stroke-dasharray:1.11,0.48;stroke-dashoffset:0;stroke-width:0.3;"/>
    <path clip-path="url(#pfaa243fd81)" d="M 152.901192 467.603854 
L 152.901192 23.999719 
" style="fill:none;stroke:#808080;stroke-dasharray:1.11,0.48;stroke-dashoffset:0;stroke-width:0.3;"/>
    <path clip-path="url(#pfaa243fd81)" d="M 175.081398 467.603854 
L 175.081398 23.999719 
" style="fill:none;stroke:#808080;stroke-dasharray:1.11,0.48;stroke-dashoffset:0;stroke-width:0.3;"/>
    <path clip-path="url(#pfaa243fd81)" d="M 197.261605 467.603854 
L 197.261605 23.999719 
" style="fill:none;stroke:#808080;stroke-dasharray:1.11,0.48;stroke-dashoffset:0;stroke-width:0.3;"/>
    <path clip-path="url(#pfaa243fd81)" d="M 219.441812 467.603854 
L 219.441812 23.999719 
" style="fill:none;stroke:#808080;stroke-dasharray:1.11,0.48;stroke-dashoffset:0;stroke-width:0.3;"/>
    <path clip-path="url(#pfaa243fd81)" d="M 241.622019 467.603854 
L 241.622019 23.999719 
" style="fill:none;stroke:#808080;stroke-dasharray:1.11,0.48;stroke-dashoffset:0;stroke-width:0.3;"/>
    <path clip-path="url(#pfaa243fd81)" d="M 285.982432 467.603854 
L 285.982432 23.999719 
" style="fill:none;stroke:#808080;stroke-dasharray:1.11,0.48;stroke-dashoffset:0;stroke-width:0.3;"/>
    <path clip-path="url(#pfaa243fd81)" d="M 308.162639 467.603854 
L 308.162639 23.999719 
" style="fill:none;stroke:#808080;stroke-dasharray:1.11,0.48;stroke-dashoffset:0;stroke-width:0.3;"/>
    <path clip-path="url(#pfaa243fd81)" d="M 330.342846 467.603854 
L 330.342846 23.999719 
" style="fill:none;stroke:#808080;stroke-dasharray:1.11,0.48;stroke-dashoffset:0;stroke-width:0.3;"/>
    <path clip-path="url(#pfaa243fd81)" d="M 352.523052 467.603854 
L 352.523052 23.999719 
" style="fill:none;stroke:#808080;stroke-dasharray:1.11,0.48;stroke-dashoffset:0;stroke-width:0.3;"/>
    <path clip-path="url(#pfaa243fd81)" d="M 374.703259 467.603854 
L 374.703259 23.999719 
" style="fill:none;stroke:#808080;stroke-dasharray:1.11,0.48;stroke-dashoffset:0;stroke-width:0.3;"/>
    <path clip-path="url(#pfaa243fd81)" d="M 396.883466 467.603854 
L 396.883466 23.999719 
" style="fill:none;stroke:#808080;stroke-dasharray:1.11,0.48;stroke-dashoffset:0;stroke-width:0.3;"/>
    <path clip-path="url(#pfaa243fd81)" d="M 419.063673 467.603854 
L 419.063673 23.999719 
" style="fill:none;stroke:#808080;stroke-dasharray:1.11,0.48;stroke-dashoffset:0;stroke-width:0.3;"/>
    <path clip-path="url(#pfaa243fd81)" d="M 441.243879 467.603854 
L 441.243879 23.999719 
" style="fill:none;stroke:#808080;stroke-dasharray:1.11,0.48;stroke-dashoffset:0;stroke-width:0.3;"/>
    <path clip-path="url(#pfaa243fd81)" d="M 463.424086 467.603854 
L 463.424086 23.999719 
" style="fill:none;stroke:#808080;stroke-dasharray:1.11,0.48;stroke-dashoffset:0;stroke-width:0.3;"/>
    <path clip-path="url(#pfaa243fd81)" d="M 485.604293 467.603854 
L 485.604293 23.999719 
" style="fill:none;stroke:#808080;stroke-dasharray:1.11,0.48;stroke-dashoffset:0;stroke-width:0.3;"/>
   </g>
   <g id="LineCollection_3">
    <path clip-path="url(#pfaa243fd81)" d="M 42.000158 245.801786 
L 485.604293 245.801786 
" style="fill:none;stroke:#808080;stroke-dasharray:3.7,1.6;stroke-dashoffset:0;"/>
   </g>
   <g id="LineCollection_4">
    <path clip-path="url(#pfaa243fd81)" d="M 263.802225 467.603854 
L 263.802225 23.999719 
" style="fill:none;stroke:#808080;stroke-dasharray:3.7,1.6;stroke-dashoffset:0;"/>
   </g>
   <g id="patch_3">
    <path d="M 42.000158 467.603854 
L 42.000158 23.999719 
" style="fill:none;stroke:#262626;stroke-linecap:square;stroke-linejoin:miter;stroke-width:0.8;"/>
   </g>
   <g id="patch_4">
    <path d="M 485.604293 467.603854 
L 485.604293 23.999719 
" style="fill:none;stroke:#262626;stroke-linecap:square;stroke-linejoin:miter;stroke-width:0.8;"/>
   </g>
   <g id="patch_5">
    <path d="M 42.000158 467.603854 
L 485.604293 467.603854 
" style="fill:none;stroke:#262626;stroke-linecap:square;stroke-linejoin:miter;stroke-width:0.8;"/>
   </g>
   <g id="patch_6">
    <path d="M 42.000158 23.999719 
L 485.604293 23.999719 
" style="fill:none;stroke:#262626;stroke-linecap:square;stroke-linejoin:miter;stroke-width:0.8;"/>
   </g>
  </g>
 </g>
 <defs>
  <clipPath id="pfaa243fd81">
   <rect height="443.604135" width="443.604135" x="42.000158" y="23.999719"/>
  </clipPath>
 </defs>
</svg>
